<svg id="Layer_1" data-name="Layer 1" xmlns="http://www.w3.org/2000/svg" width="300" height="300" viewBox="0 0 300 300"><defs><style>.cls-1{fill:#d9dbeb;}.cls-2{fill:#231f20;}.cls-3{fill:#58595b;}</style></defs><title>logo-heroxx-logistix</title><path class="cls-1" d="M274.43,9.69C273,13.06,273,17,270.26,20c-.65.69-.72,1.94-1.14,3.18l4.8-2.07A5.68,5.68,0,0,1,271.38,24c-2.07,1.58-4.78,2.61-5.89,5.17A31.39,31.39,0,0,1,261,36.69c-.77.94-1.13,1.62-.42,2.6a3.78,3.78,0,0,1,4.15,2.34c3.63-1.72,5.35-5.13,7.55-8.11.95-1.28,1.82-2.7,3.78-2.49,1.15.13,1.64-.45,1.23-1.54-1-2.59.75-2.4,2.31-2.23,3,.32,4.53,2.11,4.61,5.21,2.79-1,1.65-3.61,1.86-4.92.42-2.57-3.69-.34-4.56-2.72.25-.22.54-.7.87-.74,3.15-.3,2.45-1.78,1.1-3.46-.34-.42-.78-.75-1.11-1.17-1.33-1.75-1.19-3.25.67-4.6a11.66,11.66,0,0,1,6.81-2.19c-3.69-.42-7.21-1.57-11-1.55a9,9,0,0,1,7.32-1c1.92.46,3.87,1.16,5.94,1,.79-.07,1.87-.12,1.87-.85,0-2.93-2.43-4.54-4.14-6.4-1.36-1.48-2.79.07-3.8,1a11.58,11.58,0,0,1-6.59,3.63,49.22,49.22,0,0,1,3.94-3.64c3-2.18-1.11-2.11-1-3.31,1.56-.83,3.81.86,4.86-1.49l-7.74,0C276.27,2.38,275.89,6.36,274.43,9.69Z"/><path class="cls-1" d="M295.27,5c.89.45,2.22,1,3.23.24A12.36,12.36,0,0,1,300,4.36l0-4.25L289.87.05A12.78,12.78,0,0,0,295.27,5Z"/><path class="cls-1" d="M288.32,63.35c.17,1.35,1.32,1.48,2.1,1.86,2.42,1.21,4.61-2.4,7.15-.46.11.09.44,0,.6-.11s.32-.36.28-.49a2,2,0,0,1,1.21-2.62L299.91,18A6.89,6.89,0,0,0,298.5,22a1.48,1.48,0,0,1-1.75,1.45c-1.19-.15-1.79.69-2,1.68-.38,1.91-1.77,3-3.1,4.15-5,4.44-6.15,6.27-9.34,14.61a1.16,1.16,0,0,1-.43.47c-1.67,1.17-.83,2,.35,2.81a17.09,17.09,0,0,1,5.64,7.14,55,55,0,0,1,2.78,9.49C289.85,64,289.2,62.9,288.32,63.35Z"/><path class="cls-1" d="M299.92,14.47l0-4.3a1.36,1.36,0,0,0-1.54,1.53c.28,2-.87,3.23-1.87,5.63C297.84,16.25,298.86,15.2,299.92,14.47Z"/><path class="cls-1" d="M201,300c-2.46-1.41-4.2-2.67-4.45-5.31l-.21-2.18,1.78-.92,1.83-.95,3-1.54-3.3-.86a7.12,7.12,0,0,0-1.81-.26,5.86,5.86,0,0,0-3.11,1,3.39,3.39,0,0,1-1.66.6c-.28,0-.37-.09-.4-.13s-.27-.36-.22-1.16l.2-3-2.31,1.9-.2.14a1.74,1.74,0,0,0-1,1.54c.12,2.2-.57,3-1.76,3.28a1.88,1.88,0,0,0-1.33-1.23l-.74-.24c.13-.19.31-.43.53-.72a1.76,1.76,0,0,1,.2-.19,2.39,2.39,0,0,0,.94-1.68,2.2,2.2,0,0,0-.68-1.6l-.28-.29-.39-.08a2.6,2.6,0,0,0-.55-.06,2.13,2.13,0,0,0-2,1.72,1.79,1.79,0,0,1-.06.18,3.25,3.25,0,0,1-.8,1,3.33,3.33,0,0,1-.79-1.07c0-.09-.09-.18-.14-.28-.26-.56-.8-1.73-2.08-1.73a2.19,2.19,0,0,0-1,.27,1.78,1.78,0,0,1-.77.25c-.39,0-.77-.45-1.36-1.2-.2-.26-.4-.51-.62-.76l-1-1.18-1,1.25-.36.5a4.88,4.88,0,0,1-.51.65,8.45,8.45,0,0,1-.89.71c-.91.66-2,1.49-2.09,2.9s1.19,2.66,2.13,3.44c.27.22.54.49.83.78a8.45,8.45,0,0,0,2.94,2.11,21.32,21.32,0,0,0,2.45.71c1.65.41,3.35.83,3.77,1.81a12.22,12.22,0,0,0,1,1.87h-34.9c.85-.44,2.36-1.24,2.4-2.74a2.89,2.89,0,0,0-1.35-2.29l.15-.15a4,4,0,0,1,.93-.54c1.17-.57,3.61-1.76,2.44-5.19l-.75-2.22-1.47,1.82c-.48.59-.94,1.16-1.24,1.48l-.27-.22a7.31,7.31,0,0,1-2.15-9.19l.07-.12a1.74,1.74,0,0,0-.29-2.5,3.39,3.39,0,0,0-1.82-.53,1.33,1.33,0,0,0-1.32.91c-.06.19-.5.5-.82.73-.78.55-2.4,1.7-1.57,3.77a3.59,3.59,0,0,1-.23,1,3.75,3.75,0,0,0,0,3.13,3.67,3.67,0,0,0,2.63,1.54s.22.26.1,1.49a54.19,54.19,0,0,0-.1,6.9l0,.66A3.58,3.58,0,0,0,144,300H136a2,2,0,0,0,0-1.33c-.88-2.45-1.19-3.59.82-5a3.57,3.57,0,0,0,1.4-3.36,6.43,6.43,0,0,0-3.5-5,2.86,2.86,0,0,1-1.88-2.07c-.13-.66-.52-2.68-2.3-2.68a3.18,3.18,0,0,0-2.17,1.1c-.52.5-.79.56-.82.57a2.47,2.47,0,0,1-.46-.84,3.63,3.63,0,0,0-.46-.83,2.39,2.39,0,0,1,1.87-1,7.44,7.44,0,0,1,2.9.93,2.53,2.53,0,0,0,1.09.24,3.87,3.87,0,0,0,2.82-1.4,2.41,2.41,0,0,0,.58-2,18.71,18.71,0,0,1-.27-2.65c0-.75-.08-1.54-.2-2.33l0-.17a2.24,2.24,0,0,0,1.78-2,8.76,8.76,0,0,1,1.15-3.17,9.1,9.1,0,0,0,1.39-5.28,8,8,0,0,0,1.53-1.63l1-1.22-.85-.81a5.06,5.06,0,0,0-1.14-.76l-.31-.17a.86.86,0,0,1,.63-.23,2.21,2.21,0,0,1,.89.22,4,4,0,0,0,1.68.37,4.13,4.13,0,0,0,3.78-2.65c.55-1.3-.41-3.28-1-4.35-.74-1.28-1.91-2.84-3.24-3h0a10.24,10.24,0,0,0-.42-2.23,5.27,5.27,0,0,1-.28-2.54l.51-2.26a2.26,2.26,0,0,0,.4,0,2.21,2.21,0,0,0,1.91-1.27,1.57,1.57,0,0,1,.13-.21c2.08-1.81,2.38-4.16,2.65-6.24a14.86,14.86,0,0,1,.46-2.49,8.07,8.07,0,0,0,1.25.13,2.18,2.18,0,0,0,1.71-.67,2,2,0,0,0,.45-1.65,8.45,8.45,0,0,1,.39-2.92,9.08,9.08,0,0,0,.32-4.44,2.73,2.73,0,0,0,1.3-1.61,3.14,3.14,0,0,0,1.69.51,4.77,4.77,0,0,0,2.37-.8,5.81,5.81,0,0,1,.85-.42l1.2-.42-.4-1.21a2.09,2.09,0,0,0-.66-1,6.89,6.89,0,0,0,.56-1.63c.2-.8.32-1.19.59-1.33a6.07,6.07,0,0,0,2.93-4c.09-.27.18-.54.29-.81l.09-.23c.85-2-.06-2.92-1-3.31a2,2,0,0,0-.8-.17c-.95,0-1.71.62-2.27,1.84a13.73,13.73,0,0,1-5.43,6.13c-2.65,1.52-3.26,3.68-3.8,5.59l-.15.53h-.18c-2.36,0-3.57,1.69-4.53,3a5.2,5.2,0,0,1-2,2,3,3,0,0,0-1.81,1.52,3.15,3.15,0,0,0-.75-.27c-.74-.17-1-.59-1.39-1.54-.11-.24-.22-.49-.36-.75h.06a2.14,2.14,0,0,0,2.11-2.31,2,2,0,0,0-1.78-2.1l-.18,0a17.1,17.1,0,0,0-1.83-.9c-2.36-1-3.47-1.67-2.92-4.24a5.77,5.77,0,0,0-1.09-3.93,2.61,2.61,0,0,0-2.08-1.06,3,3,0,0,0-1.58.48,2.81,2.81,0,0,1-.67.32c-.06-.13-.14-.33-.19-.46a4.05,4.05,0,0,0-.43-.9l.37-.16.6-.27h.5a2.1,2.1,0,0,0,2.11-1.39l.26-.66-.42-.58a8.2,8.2,0,0,0-6.25-3.2,3.41,3.41,0,0,0-3.57,2.28,9.44,9.44,0,0,1-.92,1.93,9.73,9.73,0,0,0-1.32,3.22c-.08.48-.49.93-1.26,1.4a2.08,2.08,0,0,0-1.58-.73,3.39,3.39,0,0,0-1.92.79,4.08,4.08,0,0,1-.58.36,4.89,4.89,0,0,0-.67,0,2.34,2.34,0,0,0-1.88.76,3.21,3.21,0,0,0-.4,2.73,4.05,4.05,0,0,1,.08.88,3.67,3.67,0,0,0-.19.72,1.91,1.91,0,0,1-.06.25,4.25,4.25,0,0,0-1.56,3.48,3,3,0,0,0-2.32,1.31,5.94,5.94,0,0,1-1,.91c-.22.17-.43.34-.64.52L104,223l1.48,1c1.6,1.11,2.43,1.77,2.26,3.29l-.21,1.88,1.57-.42.2.27a3.89,3.89,0,0,1,.16.69,3.46,3.46,0,0,0,.75,1.81A17.36,17.36,0,0,0,106,233.7a17.33,17.33,0,0,1-3.06,1.66l-1.39.53a2.14,2.14,0,0,0-1.81-1.11,2.35,2.35,0,0,0-1.16.33,2.85,2.85,0,0,0-1.23,3.19,3.21,3.21,0,0,1,0,.67,2.38,2.38,0,0,0,.39,2,1.71,1.71,0,0,0,1.19.59,8,8,0,0,0-1.5,1.79l-1.23-1a12,12,0,0,1-1.86-1.7h0s0-.09.07-.32a4.07,4.07,0,0,1,.36-.68,3.07,3.07,0,0,0,.62-2.53,2.1,2.1,0,0,0-1.26-1.29,2.7,2.7,0,0,0-1.06-.23,2.34,2.34,0,0,0-1.44.48,2.32,2.32,0,0,0,.51-1.45v-.08a4,4,0,0,0,.6-1.48,2.87,2.87,0,0,0,2.46,1.7,2.58,2.58,0,0,0,1.12-.26,2.83,2.83,0,0,0,1.69-2.05,3,3,0,0,0-1-2.65,3.32,3.32,0,0,1-.44-.68A4.19,4.19,0,0,0,94,226.76l-1.35-.38.42-.37a6.72,6.72,0,0,1,1.5-.94c1.34-.69,3.18-1.65,3.61-4.29a4.67,4.67,0,0,0-1.33-3.93c-.47-.59-.74-.94-.72-1.34l.09-1.89-1.52.51-.09-.17a2.28,2.28,0,0,0-2-1.47,2.14,2.14,0,0,0-1,.27c-1.07.57-1.34,1.56-.81,3,0,.11.1.27.13.37s-.15.38-.22.58l-.14.4c-1.18-.17-1.24-.31-1.28-.62,0-.12,0-.25,0-.38-.08-1.66-.78-2.5-2.08-2.5a3,3,0,0,0-.46,0A3.52,3.52,0,0,0,84.32,215l-1.8-1.63a3,3,0,0,0-2.06-.88,3.52,3.52,0,0,0-1.35.31l-.22.08a2.42,2.42,0,0,0-.7-.11,2.61,2.61,0,0,0,.65-1l.63-1.78h.18a2.27,2.27,0,0,0,.81-.16,5.56,5.56,0,0,0,3.42-4.08,5.17,5.17,0,0,0-1.32-4.77,8.35,8.35,0,0,1-1.14-1.65c-.82-1.4-1.92-3.27-4.43-3.62l-.19-.47a9.77,9.77,0,0,0-.46-1.06A11.58,11.58,0,0,0,71.26,189l-1-.49-.63.93a4.15,4.15,0,0,0-.63,2.42c0,.6,0,.75-.16.87a4.94,4.94,0,0,0-1.72,4.05,4.18,4.18,0,0,0,2.07,3.13,3.78,3.78,0,0,1,1.12,1.53l.28.52c-1.54.05-1.9,1.49-2.06,2.11,0,.1-.06.22-.09.33a2,2,0,0,0-.33,0,6.67,6.67,0,0,0-3.88,2.92c-.27.35-.53.68-.81,1l-1.14,1.26,1.46.73a3.12,3.12,0,0,0-1.89,1.12l-.29.18-.19-1.36a29,29,0,0,1-.26-3.36l0-.62a9.5,9.5,0,0,0-.29-2.24l.16.15a3.2,3.2,0,0,0,2.21.94A4,4,0,0,0,65.77,204a2.46,2.46,0,0,0,1-2.12A2.51,2.51,0,0,0,65.35,200l0,0c0-.11.06-.28.09-.4a3.64,3.64,0,0,0,0-2.11l-.39-1.18-1.19.35A4.67,4.67,0,0,0,61,199.08a3.48,3.48,0,0,1-.62.86,2.29,2.29,0,0,0-.89,1.72,2.26,2.26,0,0,0,.07.61,2.6,2.6,0,0,0-1.46-.4,8,8,0,0,0-3.16.91c-.63.28-1.26.53-1.94.79l-.32.12c-.26.1-.52.22-.78.35a3.5,3.5,0,0,1-1.14.41c-.06,0-.19,0-.43-.26-.53-.58-.44-1,.14-2.38l.24-.59c.15-.38.39-.55.91-.88.22-.14.45-.29.67-.45a2.6,2.6,0,0,0,1-2.32,2,2,0,0,0-2-1.65,2.52,2.52,0,0,0-1.16.28,13.55,13.55,0,0,1-1.61.67c-1.67.62-3.74,1.39-4.7,3.84a.94.94,0,0,1-.2.35,3.62,3.62,0,0,1-1-.28c-.74-.29-.79-.51-.8-1.78,0-.15,0-.3,0-.46a5,5,0,0,0-2.06-4,1.52,1.52,0,0,0-.91-.29,3.52,3.52,0,0,0-2.18,1c-1,1.08-1.6,1.53-2,1.53a4.23,4.23,0,0,1-1.66-.79,3.62,3.62,0,0,0-2-.7,2.53,2.53,0,0,0-2,1,2,2,0,0,0-.5,1.66,2,2,0,0,0,1.2,1.34l.07,0a8,8,0,0,0,3.78,3.7,8.12,8.12,0,0,1,2.37,1.82l.87,1.14,1-1a3.76,3.76,0,0,0,.88-1.46l.06-.15.16.16c.05.29.13.58.21.85a3.12,3.12,0,0,1,.18,1.06,1,1,0,0,1-.43.23,2.27,2.27,0,0,0-1.59,1.86,1.42,1.42,0,0,0,.91,1.37,2.11,2.11,0,0,1,.43.22,5.3,5.3,0,0,1-.25.59,4.53,4.53,0,0,0-.51,1.57,3.16,3.16,0,0,0,.65,2.36,2.23,2.23,0,0,0,1.6.77h.1c1.14,0,2-1,2.19-2.61,0-.33.11-.67.19-1a2.54,2.54,0,0,0,.78,1.13,2,2,0,0,0-.92,1.26l-.19.74.56.52.61.55c.46.41,1.55,1.38,1.54,1.74,0,0-.16.46-1.7,1.11-1.1.46-.85,2-.79,2.26a1.49,1.49,0,0,0,2.41,1,.28.28,0,0,1,.2-.08,3,3,0,0,1,.84.26,4.78,4.78,0,0,0,1.79.44,2.83,2.83,0,0,0,1.58-.48l.29.27c.2.19.41.38.6.53a3.05,3.05,0,0,1,.25.3,2.69,2.69,0,0,0,2.14,1.27,2.8,2.8,0,0,0,1.35-.38l.7-.39,0-.8A3.72,3.72,0,0,0,54,220a3.56,3.56,0,0,0,1-1.38l.14-.31a2.87,2.87,0,0,1,.42.07,4.39,4.39,0,0,0,1,.11,6.07,6.07,0,0,0,5.59-4.72l0-.2A4.29,4.29,0,0,0,65,214.79a6.47,6.47,0,0,0,3.41-1.32,5.41,5.41,0,0,1,2.12-1l.32-2.51a.52.52,0,0,1,.29.36,1.8,1.8,0,0,1,.08-.42,2,2,0,0,1,.91-.19,1.52,1.52,0,0,1,.85.19l.11.22a2.32,2.32,0,0,0,1.08,1.19,11.16,11.16,0,0,0-2.09,2.5,8.19,8.19,0,0,1-1.53,1.87l.87,1.82-.11.21a4.37,4.37,0,0,1-.44.7,10.63,10.63,0,0,1-.79-1.17,2.05,2.05,0,0,0-1.78-1.14,1.92,1.92,0,0,0-1,.26,3.06,3.06,0,0,0-1.45,1.74,1.81,1.81,0,0,0,1.41,2.29l.16.05.27.16a10.7,10.7,0,0,1,3.14,2.44,3,3,0,0,0,2.3,1.29,2.87,2.87,0,0,0,2.48-1.74,1.51,1.51,0,0,1,1.48-.88,7.93,7.93,0,0,1,2.33.53,12.34,12.34,0,0,0,4,.82,7.64,7.64,0,0,0,1-.07,2,2,0,0,0,.56,1.44,2.09,2.09,0,0,0,1.39.58l.17,0,1.27.27a2.84,2.84,0,0,0,1,1.54,2.21,2.21,0,0,0,1.31.49,1.71,1.71,0,0,0,1.55-1,1.52,1.52,0,0,0,.32,0h.22V228c0,.39,0,.78,0,1.16,0,.16,0,.32,0,.48a3.08,3.08,0,0,0-.33-.47,1.43,1.43,0,0,0-1.09-.53h-.55l-.4.41c-.31.32-.68.37-1.52.41A5,5,0,0,0,86,230l-.84.49.23.95c.07.28.47,1.67,1.63,1.67h.36a.79.79,0,0,1,.29,0h0a3.83,3.83,0,0,1,.07.94,2.54,2.54,0,0,0,.13.87,16.13,16.13,0,0,0-3,.9l-2.75,1a6.41,6.41,0,0,0-.65-1,1.73,1.73,0,0,0-1.38-.75,2,2,0,0,0-1.47.79l-.09.1a9.59,9.59,0,0,1-.89.45c-.33.15-.69.32-1.06.52v-.1a2.27,2.27,0,0,0,0-.53,4.13,4.13,0,0,0,1.22-1.54,2.92,2.92,0,0,1,.37-.6,2.66,2.66,0,0,0,2-.92,2.4,2.4,0,0,0,.38-1.88,2.31,2.31,0,0,0-1.75-1.86,1.55,1.55,0,0,1-.22-.08,2.19,2.19,0,0,0-1.29-.43,2.44,2.44,0,0,0-2.16,1.6,9.9,9.9,0,0,1-.55,1,6.87,6.87,0,0,0-1.08,2.86l-.87.28a8.26,8.26,0,0,1-2.48.56,3.58,3.58,0,0,1-2.28-.88l-3.31-2.61,1.28,4c.14.45.24.78.32,1a9,9,0,0,0,.36,1.05c1,2.3,3,2.4,4.37,2.48a3.67,3.67,0,0,1,1.69.32l2.73,1.85-.47-2h5.21a3.44,3.44,0,0,0,1.06-.16c-.09.24-.22.52-.34.77a4.19,4.19,0,0,0-.52,3.35,3.59,3.59,0,0,0,2,1.92l0,0a18.42,18.42,0,0,0-1.45,1.57l-.2.24a2.58,2.58,0,0,0-.64-1.95,2.24,2.24,0,0,0-1.69-.67,4.41,4.41,0,0,0-1.36.24,3.52,3.52,0,0,0-2.73,3.63c0,.12,0,.22,0,.33l-.33-.41L73,251a3.54,3.54,0,0,1-.22.29,2.89,2.89,0,0,0-.78,1.59,2.19,2.19,0,0,0,.49,1.72,1.75,1.75,0,0,0,1.31.55,2.5,2.5,0,0,0,.45,0l.21.28c1.54,2.06,1.71,2.67,1.58,2.83a7.67,7.67,0,0,0-.85,1.18,2.1,2.1,0,0,0-.46-.82,2.64,2.64,0,0,0-2.06-.78,7,7,0,0,0-1.11.1h-.09a8.14,8.14,0,0,1-2.23-.68c-.59-.23-1.2-.48-1.8-.65A6.91,6.91,0,0,1,65.31,255a19.14,19.14,0,0,0-1.57-1.38h0c2.87-.55,3-2.57,3-3.77a2.91,2.91,0,0,1,.28-1.42l1.54-2.35-2.78.36a2.84,2.84,0,0,0-2.61,2.06l0,.13-.15.07c-2.28,1.08-4.85,2.31-6.35,5.07h-.15a.73.73,0,0,1-.57-.24A2.58,2.58,0,0,0,54,252.21a2.25,2.25,0,0,0-1.78,1.2,4.18,4.18,0,0,0-.66,3.22,5.07,5.07,0,0,0,2.06,3.1,4.79,4.79,0,0,1,.57.42l-.37.27a6.68,6.68,0,0,0-.84.66c-.73.71-1.9.93-4.19,1.23l0,.27a3.33,3.33,0,0,0-2.43-2.05,5,5,0,0,1-.66-.26l-1.51-.81L44,260.53a2.25,2.25,0,0,0-1.68.65,2.63,2.63,0,0,0-.6,2.06c.06,1.07.19,3.31,2.89,3.31H45a3.77,3.77,0,0,0,.79.09,3,3,0,0,0,2.82-1.86v.06a3.21,3.21,0,0,1,1.06.73,2.87,2.87,0,0,0,1.91,1,2.64,2.64,0,0,0,2-1.16c.61-.78,1.45-.9,2.76-1,.37,0,.73-.06,1.06-.12l1-.15c2.53-.37,5.15-.75,7.08-3.39l.17-.22,1,.24a19.08,19.08,0,0,1,6.69,2.47l1.56-1.55a2.06,2.06,0,0,0,.43.67,2.29,2.29,0,0,0-1.16,1.85c0,.06,0,.12,0,.18a3.78,3.78,0,0,0-2.1-.75,2.34,2.34,0,0,0-1.78.81,4.22,4.22,0,0,0-.8,3.09,3.38,3.38,0,0,1-.34,1.69,7.71,7.71,0,0,0-.42,1.38l-.15.86.73.46a8.24,8.24,0,0,0,3.36,1,9.17,9.17,0,0,1,1.7.36,3.47,3.47,0,0,1,1.15.56h0a1.86,1.86,0,0,1-.06.23v0l-.2-.11a4.55,4.55,0,0,0-1.45-.59l-4.24-.73,3.14,2.95c.16.15.16.44.07,1.21a5,5,0,0,0,.09,2.16,7.61,7.61,0,0,0-.87-.12h-.18a2.54,2.54,0,0,0-2.61,2.33,4.17,4.17,0,0,0,.84,2.52,81.9,81.9,0,0,0-7.3-3.71,2.66,2.66,0,0,0,.33-.29l1.08-1.13-1.53-1a10.8,10.8,0,0,0-4.15-1.94,4.5,4.5,0,0,0,.59-.12,2.21,2.21,0,0,0,1.13-3.61c0-.08,0-.23,0-.33a2.33,2.33,0,0,0-2.08-2.4l-.37,0a2.71,2.71,0,0,0-2.42,1.55l-.39.7c-.78,1.46-1.29,2.29-2.6,2.55a3.9,3.9,0,0,0-2.54,2.29,4.21,4.21,0,0,0-.52-1.61,2.35,2.35,0,0,0-1.43-1.16,2.64,2.64,0,0,0-.65-.08,2.51,2.51,0,0,0-.59.07l.45-.2A2.44,2.44,0,0,1,48.1,273a7,7,0,0,1,.83.06l.33,0a6.6,6.6,0,0,0,1.4.17,2.76,2.76,0,0,0,2.65-1.58,3.31,3.31,0,0,0,.14-2.08,1.65,1.65,0,0,0-1.6-1.48,2.2,2.2,0,0,0-1.17.4l-.06,0a5.24,5.24,0,0,1-2.62.9,3.72,3.72,0,0,1-2.83-1.62,2.45,2.45,0,0,0-1.91-.81,2.72,2.72,0,0,0-2.12.94c-.42.5-1.2,1.87.46,3.67.8.87,1.91,2.06,3.54,2.06a3.55,3.55,0,0,0,1-.14,4.69,4.69,0,0,0-2,2.38l-.15.29a5.86,5.86,0,0,1-.75,1.21,5.41,5.41,0,0,1-.86-.94l0-.08a1.54,1.54,0,0,0-1.48-1.19,2,2,0,0,0-1.35.65A2.73,2.73,0,0,0,39,279.1l.1.21a1.87,1.87,0,0,0-1.33-.55,2.59,2.59,0,0,0-1.2.34l0-.34a5.32,5.32,0,0,1,.46-3.29,2.53,2.53,0,0,0,.35-.84l.95.39.31-1.09h.58a2,2,0,0,0,1.55-.59,1.86,1.86,0,0,0,.44-1.48,5.29,5.29,0,0,0-1.52-2.81c-.22-.26-.43-.5-.57-.71l-.45-.65-.78.1a3.52,3.52,0,0,0-2.73,1.6,1.77,1.77,0,0,0,.09,1.71,2.27,2.27,0,0,1,.09.6,6.61,6.61,0,0,0,.07.67l-.24,0h-.43a2.45,2.45,0,0,0-1.89.72,2.24,2.24,0,0,0-.47,1.84c0,.38.09.76.13,1.14a12.26,12.26,0,0,0,1.14,4.68,2.28,2.28,0,0,0-.76.65,2.58,2.58,0,0,0-.37,2l.19.65.66.23.51.18a5.78,5.78,0,0,0,2.06.47,3.72,3.72,0,0,0,1.59-.36,4.46,4.46,0,0,0,2.3-4l.19.35.75,1.42,1-.82.05.06a2.62,2.62,0,0,0,1.95,1.11,1.93,1.93,0,0,0,.4,0A5,5,0,0,0,47.47,284a11.82,11.82,0,0,0,3.75-.83l.36-.12.11.31A3.22,3.22,0,0,0,53,285.28a6.77,6.77,0,0,0,3.61.77h.43a4.69,4.69,0,0,1,1.46.15,28.12,28.12,0,0,0,3.9,1,22.48,22.48,0,0,1,4.12,1.1c3.51,1.43,6,3,7.3,4.55l.6.73c1.14,1.41,2.23,2.75,4.09,2.75a5.56,5.56,0,0,0,2.8-.92,1.87,1.87,0,0,0,.65-.69l.11-.16.28-.39.48,1.4c.49,1.43,1.14,3.35,3.14,3.35a3.85,3.85,0,0,0,1.79-.51,5.58,5.58,0,0,0,.74,1.6H.61V243.71a2.36,2.36,0,0,0,.55-.22,7.8,7.8,0,0,1,2.78-1.14c.55,0,1.16.56,2.41,2.23l1.56,2.09.71-2.51A5.06,5.06,0,0,0,8.78,243c0-.6,0-.6.34-.73a2.87,2.87,0,0,0,1.76-2.77c-.07-.7-.51-1.93-2.69-2.36a3.34,3.34,0,0,0-.66-.05H6.91c0-.16,0-.32,0-.48,0-.8-.08-2.65.25-3.1a6.7,6.7,0,0,0,4.36-2.25c1-.89,1.6-1.44,2.39-1.44a2.45,2.45,0,0,1,.85.17,1.52,1.52,0,0,0,.54.1c1.33,0,2-1.59,2.12-2.65a3.37,3.37,0,0,0-.75-2.73,4.43,4.43,0,0,0-3.45-1.27h-.29l0-.11.12-.28a3.75,3.75,0,0,0,.4-2.25,3.81,3.81,0,0,1,0-.41c0-.13,0-.27,0-.42a5,5,0,0,0,.84.07c.33,0,.68,0,1,0s.64,0,1,0h.29l1.69.09L18,218.33c-.7-3.23-2.55-4.87-5.49-4.87H12.4l.08-.22a12.58,12.58,0,0,1,2.62-3.63,23.53,23.53,0,0,0,2-2.4l.11-.06a1.88,1.88,0,0,0,.93-2.65,1.81,1.81,0,0,0-1.61-1.09,2,2,0,0,0-.47-3.54c-.2-.1-.31-.31-.51-.76a3,3,0,0,0-1.3-1.59l-.39-.2-.43.08a2.15,2.15,0,0,0-1.6,1,2.46,2.46,0,0,0,.06,2.16,7.32,7.32,0,0,0-2.44.87l-.66.31.14-.29a3.76,3.76,0,0,0,.55-2.84,1.78,1.78,0,0,0-.89-1l-.39-.26-1.44-1L6.24,198c-.16.49-.41,1.1-.66,1.69-.8,1.9-1.43,3.41-.45,4.41.78.8.65,1.26.35,2.37-.09.33-.19.7-.27,1.1l0,.2a3.32,3.32,0,0,0,.35,2.74,3,3,0,0,0,2.27,1.08.72.72,0,0,1,.42.13s0,.29-.2.78l-.1.19c-.65,1.28-1.32,2.61-.65,3.71a1.92,1.92,0,0,0,1.74.88,5.73,5.73,0,0,0,1.82-.37c0,.17.06.33.11.49a2.38,2.38,0,0,0-1.71.76A3.42,3.42,0,0,0,8.66,221c.42,3.55-1.08,5.88-4.85,7.55a3.55,3.55,0,0,1-1.5.25l-.71,0-.79,0H.61v-6.65l1.85,1.07c1.65-1.8,3.52-3.84,3.15-6.9,0-.06,0-.14,0-.22-.07-2.28-1.47-2.63-2.3-2.63a3.71,3.71,0,0,0-.62.06,2.53,2.53,0,0,0-1.9,1.22,2.29,2.29,0,0,0-.17.4v-1.64l-.61.63.37-1.28.24.38V190.59a20.19,20.19,0,0,0,1.93,2.28l2.76,2.87-.56-4a14.25,14.25,0,0,0-3.9-7.51L.61,184V178.5A2.81,2.81,0,0,0,1.68,177c.2-.68.45-.77,1.46-.84h.15a5.72,5.72,0,0,1,.42,1.15l.25.85c.53,1.8,1.19,4,3.95,5.32l2.9,1.35-1.15-3c-.44-1.15-.85-2.27-1.25-3.37a70.58,70.58,0,0,0-3-7.29,4.84,4.84,0,0,1-.26-.62l.61,0H7.19l-.1-1.38a2.34,2.34,0,0,0-1.68-1.94l0-.05a2,2,0,0,0,0-2.1,2.56,2.56,0,0,0-2.18-1.32,2.16,2.16,0,0,0-.42,0,4.14,4.14,0,0,1-.77.08,1.42,1.42,0,0,1-1.49-1V161l.53.22a6.35,6.35,0,0,0,2.25.44,7.11,7.11,0,0,0,4.34-1.79L8,161.55a8.53,8.53,0,0,0,3.83,5.75A7.19,7.19,0,0,1,13.63,169c2.23,3.57,8.2,6.48,13.32,6.48a11.31,11.31,0,0,0,2.6-.28l-.16-2.55c-7.33-.8-12.23-5.53-17.91-11l-1.31-1.26L8.8,159.09c.26-.19.52-.37.79-.53l-1.25-2.27a3.43,3.43,0,0,1-1.58.42,5.11,5.11,0,0,1-3-1.31,4,4,0,0,0-2.4-.85,3.37,3.37,0,0,0-.76.09V142a3.52,3.52,0,0,0,.27-.71,7,7,0,0,1,.49,1.35,3.92,3.92,0,0,0,2,2.89l.43.18a17.78,17.78,0,0,0,7,1.91,9.52,9.52,0,0,0,3-.48l1.37-.46-.61-1.32a2.91,2.91,0,0,0-2.5-1.7,2.41,2.41,0,0,1-.37-.07,7.4,7.4,0,0,0-2.8-.57,6.72,6.72,0,0,1-1.39-.18,6.9,6.9,0,0,0-2.3-3.55,7.31,7.31,0,0,1-1.08-1.19,14.72,14.72,0,0,0-3.48-3.67V60.83l.23,0c.2,0,.41,0,.62,0a1.11,1.11,0,0,1,.54.1l3.81,2.07L3.74,59.11a7.52,7.52,0,0,1-.58-1.74c-.27-1.09-.65-2.63-2.08-3.26l.41-.27C1,52.56.91,51.56,1.22,51a2.63,2.63,0,0,1,2-.89l2-.28L1.41,44.09l2.5-.24a12.3,12.3,0,0,0,2.18-.47l.81-.22-.18.24a3.53,3.53,0,0,1-.26.33A1.63,1.63,0,0,0,6,45a1.79,1.79,0,0,0,.7,1.29,2.19,2.19,0,0,0,1.68.84,2.76,2.76,0,0,0,1.55-.58,1.89,1.89,0,0,1,.24-.15l.36-.17a3.56,3.56,0,0,1,1.18-.41.43.43,0,0,1,.25.08,5.47,5.47,0,0,0,3.07.87,13.73,13.73,0,0,0,1.93-.17,10.49,10.49,0,0,1,1.44-.1,8.86,8.86,0,0,1,3.63.77c0,.07,0,.14,0,.2a2,2,0,0,0,2,2.38,8.65,8.65,0,0,1,1.27.22,9.08,9.08,0,0,0,2,.29,3.57,3.57,0,0,0,3.31-2,2.84,2.84,0,0,0,1.56.41h.66a7.54,7.54,0,0,0,2.45.32h.77a3.31,3.31,0,0,1,2.16.49l.16.13a2.51,2.51,0,0,0,1.59.72,1.89,1.89,0,0,0,1.69-1.14,2.52,2.52,0,0,0-.15-2.56l1.24-.3a3.09,3.09,0,0,1,.71-.1c.47,0,.6.1,1,1.27a6.3,6.3,0,0,0,.88,1.73c.8,1,1.62,2,2.47,3.08l2.71,3.35.71-2.33c1-3.14.88-3.59-1.36-6.36a22.6,22.6,0,0,1,4-3.67h.15l0,.17a2.34,2.34,0,0,0,2.54,1.87c.26,0,.54,0,.82,0s.47,0,.7,0c.46,0,.56.09.6.12a1.86,1.86,0,0,0,1.24.47,2.57,2.57,0,0,0,2.35-2,7.59,7.59,0,0,1,1.76-3.27c0,.14,0,.27-.06.39a4,4,0,0,1-.21,1,2.56,2.56,0,0,0-.69,2.22c.26,1.11,1.28,1.58,2.18,2a9.31,9.31,0,0,1,.86.43l2.26,1.34-.32-2.61c0-.35-.1-.68-.15-1a1.83,1.83,0,0,0,.81.19,2.08,2.08,0,0,0,1.1-.33,2.26,2.26,0,0,0,.76-2.75c-.07-.26-.16-.61-.1-.7a1.57,1.57,0,0,0,.14-1.54,2.06,2.06,0,0,0-1.84-1,2.61,2.61,0,0,1-.35,0,5,5,0,0,0-1.68-.34,2.38,2.38,0,0,0-1.85.73,4,4,0,0,0-.38-1.7,2.88,2.88,0,0,0-2.44-1.89,2,2,0,0,0-1,.3,2.09,2.09,0,0,1-1.12.33,4.56,4.56,0,0,1-2.17-.77A7.82,7.82,0,0,0,55.58,34c-1.22-.28-1.93-.49-2.47-1.41a7.17,7.17,0,0,0-5.77-3.71,4.84,4.84,0,0,0-2.41.64A12.3,12.3,0,0,1,39,31a3.06,3.06,0,0,0,.89-1.48,3.34,3.34,0,0,0-1.34-4c-3.5-2.27-6.17-5.32-9-8.55-.89-1-1.79-2-2.73-3.06a2.3,2.3,0,0,0,.94-.88l.08-.12A2.16,2.16,0,0,0,28.22,11,2.18,2.18,0,0,0,26.8,9.71C24.7,9,24.4,8.53,24.36,8.41c-.15-.45,1-2.23,1.38-2.9a4.85,4.85,0,0,1,.45-.63l.16.14c.18.16.37.32.57.47A17.57,17.57,0,0,0,29,6.75c1.42.77,2.65,1.43,3.24,2.85l.69,1.68,1.36-1.21a2.57,2.57,0,0,0,.6-3.66c.32-.1.62-.23.91-.34a4.49,4.49,0,0,1,1.54-.43l.22,0,0,0a1.87,1.87,0,0,0,1.55,1.06c.72,0,1.27-.46,1.66-1.37l0,0a3.18,3.18,0,0,0,.47-2.69,2.55,2.55,0,0,0-1.58-1.48h5.8a5.32,5.32,0,0,0-.69.82l-.16.21a2.05,2.05,0,0,0-.31,2.2,2.21,2.21,0,0,0,2,1.21h.4c.48,0,1,0,1.52.09s1.29.11,2,.11a11.07,11.07,0,0,0,3.42-.52L53.5,2.79c-.68-.13-1.3-.22-1.85-.29-1.64-.22-2.46-.36-3.13-1.12l-.2-.2h33a7.81,7.81,0,0,0-6.07,2.05L73.61,4.8l2.15.61a10.88,10.88,0,0,0,3.08.33,5.34,5.34,0,0,1,2.36.33,2.1,2.1,0,0,0,.93.22,3.11,3.11,0,0,0,2.71-2.53,2,2,0,0,0-.41-1.63,3.15,3.15,0,0,0-2.34-.94h37.25a3.49,3.49,0,0,1-1.08,2.15,6.34,6.34,0,0,0-1.66,4.56,5.09,5.09,0,0,1-.59,2.57c-.69,1,.11,1.83,1,2.79a13.45,13.45,0,0,1,.93,1c1,1.31,1,2,.36,3.59a2.13,2.13,0,0,0,.59,2.31,25.21,25.21,0,0,1,3.89,4.29c1.7,2.19,3.46,4.45,6.11,5.94a2.14,2.14,0,0,1,.12.53c0,.21.07.42.12.63a10.28,10.28,0,0,1,.2,1.48c.15,1.69.37,4.15,3.14,5a4.6,4.6,0,0,0,.92,3.32c.93,1,2.4,1.27,4.47,1.32h.25A3.14,3.14,0,0,0,141,41.47a2.12,2.12,0,0,0,.29-.83l.4,0a9.17,9.17,0,0,0,2.4-.41,6.86,6.86,0,0,1,1.66-.31,2,2,0,0,1,.4,0,5.09,5.09,0,0,0,1,.09,3,3,0,0,0,2.39-.89,1.67,1.67,0,0,0,.29-1.46,2.48,2.48,0,0,1,.08-.72,2.86,2.86,0,0,0-1.06-3.28,3.27,3.27,0,0,1-.32-.32l-.14-.15a10.17,10.17,0,0,0,1.63.1h.76a7.86,7.86,0,0,1,1,0,9.56,9.56,0,0,0,1.29.09,7.55,7.55,0,0,0,7.27-5.4l.56-1.55c3.48-.09,5.77-2.14,6.45-5.78l.43-2.27-2.15.82A8.21,8.21,0,0,0,163,21.17c-1,.93-1.67,1.5-2.76,1.5H160a12.65,12.65,0,0,1-2.67-.63,12.81,12.81,0,0,0-3.84-.77,6.5,6.5,0,0,0-2.39.44,1.16,1.16,0,0,1-.07-.24c-.07-.44-.17-.87-.27-1.31a10.57,10.57,0,0,1-.34-2.21c0-2.47-1.35-3.28-2.53-3.51a15.78,15.78,0,0,1-.2-5.4c.18-2.42.37-5.16-.74-7.87h19.93c.11.32.23.64.36,1a4.88,4.88,0,0,0,.74,1.24l-1.63.49v0a3.39,3.39,0,0,1-.34.7,3.13,3.13,0,0,0-.55,2.65,3.06,3.06,0,0,0,2,1.73,4.26,4.26,0,0,0,1.55.33,2.72,2.72,0,0,0,2.57-1.88,3.83,3.83,0,0,0,.34-1.43l.09,0A2.37,2.37,0,0,0,173,6.3l.29,0a4.35,4.35,0,0,0,1.57,1.47,1.91,1.91,0,0,0,1,.3c.53,0,1.48-.24,1.9-1.85C178.37,4,178.47,4,179,4a12.51,12.51,0,0,1,1.55.15,7.57,7.57,0,0,0,1.06.08,3.1,3.1,0,0,0,2.71-1.18,2.89,2.89,0,0,0,.49-1.87h15.42A5,5,0,0,0,201.84,3a3.57,3.57,0,0,1,.72.66l0,.08c-.9,2.32.09,3.57,1.18,4.65a.79.79,0,0,1,.25.45,2.17,2.17,0,0,0-1.24-.59l-.1-.1a2.83,2.83,0,0,0-2-1,3.08,3.08,0,0,0-.93.15l-2.22.7,1.76,1.52A2.71,2.71,0,0,1,200,12a3.49,3.49,0,0,0,2.73,3.3,2.32,2.32,0,0,0,.6.08A2.52,2.52,0,0,0,205.76,13a3.75,3.75,0,0,0,1.4.25,9,9,0,0,0,1-.07,6.71,6.71,0,0,1,.72-.06.92.92,0,0,1,.56.13,2.44,2.44,0,0,0,1.22.37,1.62,1.62,0,0,0,1.27-.58,2,2,0,0,0,.35-1.67l-.08-.5c0-.27-.09-.56-.15-.86a8.11,8.11,0,0,0,3.82,1.13,6.33,6.33,0,0,0,4.77-2.42,1.9,1.9,0,0,1,.6-.32,3.36,3.36,0,0,0,1.63.45,4.08,4.08,0,0,0,2.91-1.64l.42-.43-1.47-2.1a2.51,2.51,0,0,1-1.13.2c-.33,0-.68,0-1-.06s-.8-.06-1.21-.06a4,4,0,0,0-3.59,1.83c-.57.91-.95.91-1.07.91A4.16,4.16,0,0,1,215.28,7a5.87,5.87,0,0,0-2.47-.72,3.16,3.16,0,0,0-.68.07l-.41.1a3.3,3.3,0,0,0,1-1.15,7.73,7.73,0,0,1,1.93-2,11.18,11.18,0,0,0,2.16-2.13h9a2,2,0,0,0,.51,1.34,1.58,1.58,0,0,0,1.14.48,2,2,0,0,0,.64-.11,2.09,2.09,0,0,1,.66-.13c.58,0,1,.38,1.74,1a11.57,11.57,0,0,0,1,.81,4.55,4.55,0,0,0,2.1.7l.15,0a8.58,8.58,0,0,0,4.07,1.24c1.33.16,2.47.3,3.26,1.14l.13.14a2.73,2.73,0,0,0,2,1.12,2.17,2.17,0,0,0,1.62-.79,3.76,3.76,0,0,0,1-3.89,5.37,5.37,0,0,0-2.1-2.8l-.34-.28h28.79a1.74,1.74,0,0,0,.35,2,2.2,2.2,0,0,1,.3.37c-.08.1-.22.26-.33.37a7.21,7.21,0,0,0-.57.65,12,12,0,0,0-2,3.79,2.26,2.26,0,0,0-2-1.3,2.13,2.13,0,0,0-.87.19,2,2,0,0,0-1.23,1.37,2.63,2.63,0,0,0,.77,2.23l.13.16a2,2,0,0,1,.31,1.55,1.59,1.59,0,0,1-.29.67c-.06-.18-.11-.4-.15-.56a6,6,0,0,0-.49-1.42,1.75,1.75,0,0,0-1.06-.79l-.1,0-.91-.38-.64.76a6.48,6.48,0,0,1-.65.66,5.26,5.26,0,0,0-2,3.86l-.13,2.89,2.24-1.82a1.18,1.18,0,0,1,.65-.34c.08,0,.33.06.8.66a.68.68,0,0,1,.13.21,3.85,3.85,0,0,1-.46.61,7.19,7.19,0,0,0-.53.68l-.25.38a69.35,69.35,0,0,0-6.48,11.29,23.08,23.08,0,0,1-7.86,9.73c-2.83,2-2.79,3.37-1.61,5.75a3.78,3.78,0,0,1,.52,1.5,4.22,4.22,0,0,1-1.79.26h-.23a26.23,26.23,0,0,1-6.82-1.22c-1.4-.38-2.85-.77-4.34-1l-1.24-.21-.12.6a2.65,2.65,0,0,0-1-.47,2.76,2.76,0,0,0-.63-.08c-2,0-2.08,2-2.13,2.79,0,.19,0,.38,0,.54a11,11,0,0,1-2.21,5.15l-.1-.15a4,4,0,0,0-3.48-1.38h-.32a5.8,5.8,0,0,0-2.7.51,21.33,21.33,0,0,0,1.52-4.95c.13-.57.25-1.14.4-1.74l.25-1H223a3.08,3.08,0,0,0,2.14-1c.16-.14.36-.32.43-.32a2.15,2.15,0,0,0,2.11-1.38,2.32,2.32,0,0,0-.63-2.5c-.3-.26-.52-.47-.68-.64.19,0,.44-.08.75-.11a1.44,1.44,0,0,0,1.36-1,1.5,1.5,0,0,0-.66-1.6c-.09-.3-.2-.59-.3-.87a4.09,4.09,0,0,1-.39-2l.55-3.74L225,32a6.88,6.88,0,0,0-1.23,1.47,1.87,1.87,0,0,0-.91-.5,1.78,1.78,0,0,0-.29-1,1.54,1.54,0,0,0-1.29-.68,2.64,2.64,0,0,0-1.46.55,2.22,2.22,0,0,0,0-1.42,1.75,1.75,0,0,0-1.68-1.28,2.2,2.2,0,0,0-.81.17,5.08,5.08,0,0,0-2.38-3.63l.48-.17a2,2,0,0,0,.33.65,4.19,4.19,0,0,0,3.15,1.32,2.92,2.92,0,0,0,3-3.13,3.29,3.29,0,0,0-2-2.2,6.11,6.11,0,0,1-.54-.32l-1.18-2.26-1.09,2.43a3,3,0,0,1-.31.4,12.6,12.6,0,0,0-.62-1.33l-.38-.75-.84,0A2.16,2.16,0,0,0,213,21.81a11.13,11.13,0,0,0-1.36-.45c-.68-.19-1.45-.41-1.61-.75-.06-.12-.21-.62.33-2l1.55-3.95-3.49,2.4a25.85,25.85,0,0,1-2.26,1.34c-2.23,1.23-4.53,2.49-5.11,5.61a4.7,4.7,0,0,0-.5-.5c-.61-.52-.63-.91-.54-1.24l.09-.06a2.16,2.16,0,0,0,1.09-1.55,2.32,2.32,0,0,0-.76-1.8,2.48,2.48,0,0,0-1.8-.84,3.07,3.07,0,0,0-1.77.69,2.94,2.94,0,0,1-.34.22,8.34,8.34,0,0,0-2,1.19c-.22.16-.44.33-.67.48a4.64,4.64,0,0,1-2.09,1c-.47,0-1-1.19-1.33-2.18L189.63,17l-1.44,2.11a3.71,3.71,0,0,0-.46,2.5c.07,1.06.08,1.08-.72,1.27A7.3,7.3,0,0,0,184.8,24a4.08,4.08,0,0,1-1.7.79l-.16,0a7.72,7.72,0,0,0-1.7-.22c-3,0-3.22,2.88-3.3,4a3.11,3.11,0,0,1-.31,1.51h-.08a1.49,1.49,0,0,1-.43-.08l-.21-.16a2.52,2.52,0,0,0-1.56-.65,2.19,2.19,0,0,0-1.73,1,4.34,4.34,0,0,0-.39,4.39,4.71,4.71,0,0,1,.3,1.3,2.52,2.52,0,0,0,.57,1.64,2.22,2.22,0,0,0,.25.25l-.72,1.08a3.41,3.41,0,0,1-.23.29,2.88,2.88,0,0,0-.8,1.6c-.17,2,1.1,3.12,2,4l.43.4a3.27,3.27,0,0,0,1.35.8l0,0a3,3,0,0,1-2.72,1.41h-.09a1.92,1.92,0,0,0-1.81,1.12,1.81,1.81,0,0,0,0,1.41,3.63,3.63,0,0,0-3.13,2.44,5.68,5.68,0,0,1-.56,1.16,11.05,11.05,0,0,1-.8-.89c-.18-.22-.37-.44-.56-.65a2.14,2.14,0,0,1-.08-.22,2.26,2.26,0,0,0-2.17-1.74h-.28l-.62.06-.34.52a2.43,2.43,0,0,0,.35,2.94l.09.11c.23.33.48.63.72.92,1,1.23,1.23,1.66.86,2.33a20.82,20.82,0,0,1-5.63,6.79l-.54.41c-2.05,1.54-4.38,3.29-5.54,6.19a2.88,2.88,0,0,0,1.25,3.72,2.62,2.62,0,0,1,.45.37A2,2,0,0,0,157,75.37a2.66,2.66,0,0,0,1.75-.83,3.06,3.06,0,0,0,1.15-2.24,2.67,2.67,0,0,0-.95-1.89l.12-.22c1.79-3.24,4.64-5.38,7.66-7.65a36.94,36.94,0,0,0,6.5-5.73l0,0a2,2,0,0,1,.49.28,2.86,2.86,0,0,0-.32.37l-.33.46a23.84,23.84,0,0,1-5,5.61c-3.25,2.41-3.9,4.93-3.87,6.62,0,2.42,1.46,4.68,4.1,6.53v0a2,2,0,0,0,1.83,1.42,2.57,2.57,0,0,0,.9-.18l1-.37-.16-1a5,5,0,0,0-3-4c-.38-.16-.6-.25-.49-1.29.17-1.59,2.74-3.71,4.52-3.71a1.77,1.77,0,0,0,1.9-2.1c0-.47-.05-.71,1.43-1A6.31,6.31,0,0,0,180,62.64a4.37,4.37,0,0,0,.45,1.78l1,2,1.27-1.84c.82-1.19,1.43-1.19,1.66-1.19a5.57,5.57,0,0,1,2.54,1.13l.15.1a5.49,5.49,0,0,0,3.08,1.21,4.6,4.6,0,0,0,3.42-1.8l.12-.13c0,.9.13,1.78.22,2.62a23.4,23.4,0,0,1,.2,3.38c-.18,4.38,2.14,9.55,6.21,13.84a4.87,4.87,0,0,1,1.61,3.55c-.14,2.62,1,4.7,3,5.29,1.27.39,1.83,1.28,2.63,2.69a10.07,10.07,0,0,0,1.85,2.58,1.94,1.94,0,0,1,.35,2.82,4.58,4.58,0,0,0-.12,5.24c1.19,1.58,1.17,3.35,1.14,5.4a19.29,19.29,0,0,0,.14,3.29c.33,2.07.89,4.16,3.83,4.93s5,2.44,5.64,4.55a14,14,0,0,0,2,3.88,15.21,15.21,0,0,1,1.29,2.23A5.16,5.16,0,0,0,225,132a5,5,0,0,1,.63.63c.43,4.89,3.77,6.87,6.75,8-4.66,3.74-7.82,8.66-10.88,13.41a88.83,88.83,0,0,1-5.51,7.92,59.79,59.79,0,0,0-6.81,10.24,3,3,0,0,1-.34.4,2.86,2.86,0,0,0-.41,4l1.07,1.48,1-1.5a19.69,19.69,0,0,1,2.84-3.07c1.93-1.81,3.92-3.69,4.62-6.74.1-.44.44-.76,1-1.25a8.9,8.9,0,0,0,.93-.93,31.33,31.33,0,0,1,3-3,19.8,19.8,0,0,0,4.93-5.87,41.41,41.41,0,0,1,5.82-8.38c1.25-1.52,2.54-3.09,3.71-4.76l-.07.64c1.13.32,1.65,1.16,2.48,2.6a13.73,13.73,0,0,0,1.94,2.78L245,152.1l-1.14-4.68-.15-.63c-.64-2.7-1.36-5.73-5.08-6.06a25.08,25.08,0,0,1,3.8-3.59,32.3,32.3,0,0,0,3.51-3.2c.87-1,1.75-1.91,2.63-2.85,2.24-2.41,4.55-4.9,6.63-7.58a2.33,2.33,0,0,1,1.69-.86,1,1,0,0,1,.72.26,22.92,22.92,0,0,0,5.13,3.62c4.08,2.15,7.14,5.46,10.38,9,.84.91,1.7,1.84,2.58,2.75,1.82,1.88,3.17,2.68,4.53,2.68,2.2,0,3.6-2.18,4.69-4.31l-2-1.56a.61.61,0,0,1,.35-.15l-.17,0a4.15,4.15,0,0,0-.47,0,2.11,2.11,0,0,0-2,1.28l-.17-.23c-3.82-5.62-9.16-9.64-14.33-13.53l-1.57-1.19a10.46,10.46,0,0,1-.86-.78,7.68,7.68,0,0,0-3.76-2.36,3.46,3.46,0,0,0,.46-1.93,2.49,2.49,0,0,0,.47.65,2,2,0,0,0,1.47.69,2.12,2.12,0,0,0,1.68-1l.11-.15a181.43,181.43,0,0,0,18-18.91A11.37,11.37,0,0,1,283.76,96,8.17,8.17,0,0,0,287,91.81l.35-1.22-1.21-.37-.29-.1a2.07,2.07,0,0,0-.8-.19h-.42l-.4.26a80.58,80.58,0,0,0-10.85,10c-1,1.08-2.07,2.16-3.13,3.22a8.31,8.31,0,0,0-1.47,2.32,4.64,4.64,0,0,1-1.08,1.67,23,23,0,0,0-6.48,6.25l-.12.1a2.1,2.1,0,0,0-.93,1.52,1.84,1.84,0,0,0,0,.21,2.15,2.15,0,0,0-1.28-1.13c-1.54-.55-1.65-1.26-1.86-2.67a9.57,9.57,0,0,0-.49-2.08c-.43-1.11-1.58-1.58-2.68-2s-2.27-.92-2.63-1.91a5.08,5.08,0,0,0-.57-1.13,17.93,17.93,0,0,0-8.49-6.4c.49-.79.34-1.77-.43-2.91l-.25-.36c-2.22-3.26-4.51-6.62-8-9a11,11,0,0,0-1.54-.86c-1.3-.63-1.93-1-2.06-2.09s-1.2-1.46-2-1.74c-.16-.06-.32-.11-.43-.17l-.33-.16-.36,0a2.2,2.2,0,0,0-2.31,1.68,3.5,3.5,0,0,0,1.9,3.65l.34.24c3.06,2.14,5.95,4.17,7.66,7.28a16.31,16.31,0,0,0,3.94,4.53l.1.13a2.24,2.24,0,0,0,1.53,1l.25.48a6.51,6.51,0,0,1,.46,1.58c.28,1.35.7,3.39,2.87,3.83a5,5,0,0,1,2.71,1.8,15.17,15.17,0,0,0,1.23,1.17,7.61,7.61,0,0,1,1.25,1.48,10,10,0,0,0,1.85,2.1,12.41,12.41,0,0,1,2.62,3.36l-1.78.94a6.26,6.26,0,0,0-2.86,3.64l-.21.49c-.31.72-.6,1.44-.89,2.17a28.48,28.48,0,0,1-3.1,6.22,1.4,1.4,0,0,0-.84-.28,1.92,1.92,0,0,0-1.12.43,3.06,3.06,0,0,1-.37.23,9.82,9.82,0,0,0-3.93,4.22,12.86,12.86,0,0,1-1.61,2.31,4.14,4.14,0,0,1-2.84,1.33,1.48,1.48,0,0,1-1.66-1.34c-.57-3.63-2.46-6.08-4.29-8.45l-.29-.38c-.23-.3-.49-.58-.74-.84a4.12,4.12,0,0,1-.81-1c-.46-4.92-3.4-8.05-9-9.56a3.59,3.59,0,0,1-1.22-.6,8.48,8.48,0,0,0,.05-4.1,9.16,9.16,0,0,1-.18-2,19.94,19.94,0,0,0-.19-3.73c-.23-2-.45-3.92.48-5.7.76-1.43-.94-3.36-1-3.44a20.65,20.65,0,0,1-1.62-2.17c-1.26-1.85-2.69-3.95-5.38-4.91-.5-.18-.73-1.23-.61-1.77a6.4,6.4,0,0,0-1.51-5.6,55.72,55.72,0,0,1-5.88-10.86c-.65-1.49-.5-1.94.93-2.66a19.42,19.42,0,0,0,3.78-2.72c.5-.42,1-.82,1.45-1.2l1-.81-2.17-2.66-1,.85a5.27,5.27,0,0,1-1.44.73,5.35,5.35,0,0,0-3.48,3c-.62-1.08-.34-2.18.44-4,.31-.72.59-.72.86-.72a4.62,4.62,0,0,1,1,.17l.29.1a3.58,3.58,0,0,0,1.18.27A1.53,1.53,0,0,0,204,60a1.65,1.65,0,0,0,.26-1.47,6,6,0,0,1,.36-3.07,11.81,11.81,0,0,0,.5-2.36,5.83,5.83,0,0,0,2.53,1.61,2.8,2.8,0,0,0,.93.17,2.43,2.43,0,0,0,2.12-1.53l.18-.3a2.9,2.9,0,0,0,.46-2.85,2.69,2.69,0,0,0-2.52-1.1l.52-1.11a2.83,2.83,0,0,0,1.95-.81,2.4,2.4,0,0,0,.58-1.87,2.43,2.43,0,0,0-.2-.83,2,2,0,0,0,1.28-.69c2.26-2.42,2.66-2.77,3.79-2.77a10.41,10.41,0,0,1,1.47.14l-.1.13a1.48,1.48,0,0,0-1.27.7,1.77,1.77,0,0,0,.07,1.76,2.38,2.38,0,0,0,2,1.23,1.9,1.9,0,0,0,.45-.05c-1,.69-2,1.63-1.86,3.14a4.71,4.71,0,0,1,0,1.5,7.49,7.49,0,0,1-1.46-.49l-.75-.29-.06,0a3.77,3.77,0,0,0-1.35-.31,2.41,2.41,0,0,0-1.52.55l-.77.6.37.9c.06.14.11.29.16.43a6.59,6.59,0,0,0,.55,1.24,5.19,5.19,0,0,0,1,1.11,4.15,4.15,0,0,1,.51.52l0,.07h-.08a4.82,4.82,0,0,1-.81-.12,8.54,8.54,0,0,0-.88-.14l-.4,0a2.26,2.26,0,0,0-1.75.69,2.16,2.16,0,0,0-.51,1.73c.18,1.9,1.45,2.05,1.84,2.05A3.12,3.12,0,0,0,213,57.6l.12-.07a1.52,1.52,0,0,1,.59-.08h.45a4.4,4.4,0,0,0,1.4-.19,2.47,2.47,0,0,0,.14,2c.66,1.13,2,1.14,2.92,1.15a5,5,0,0,1,.58,0c.8.23,1.6.52,2.46.82a19.12,19.12,0,0,0,6.51,1.49,10.27,10.27,0,0,0,2.82-.39l1.54-.44-.76-1.42c-1.42-2.64-1.85-4.28-.5-6.44.15-.24.33-.49.52-.75.87-1.18,2.14-2.92,1.45-5.19l.17-.23a3.57,3.57,0,0,0,2.37,1.36l1.8.41a38.26,38.26,0,0,0,7.7,1.24c2.11,0,2.11,0,2.24,1.57l0,.32c.09.95.09.95-.28,1.17a2,2,0,0,0-1.16,1.93,1.89,1.89,0,0,0,1.2,1.53,2,2,0,0,0,1.86,1.31,2.31,2.31,0,0,0,.44,0,3.08,3.08,0,0,0,2.31-1.77c.22.29.43.58.64.89a13.72,13.72,0,0,0,2.31,2.71,6.84,6.84,0,0,1-.87.05c-.58,0-1.17-.05-1.8-.11s-1.34-.12-2-.12a7,7,0,0,0-3.83,1,3.26,3.26,0,0,0-1.81-1.78c-.42-.19-.84-.36-1.27-.53a9,9,0,0,1-2.36-1.19,2,2,0,0,0-1.26-.42,2.54,2.54,0,0,0-2,1l0,0a1.74,1.74,0,0,0-.64,1.43,1.56,1.56,0,0,0,.72,1.17,19.36,19.36,0,0,1,4,3.26l.53.63.79-.21a3.21,3.21,0,0,1,.81-.07,3,3,0,0,0,1.7-.4l.42.08a19.09,19.09,0,0,0,3.37.24c2.49,0,4,.12,5.12,1.69a1.84,1.84,0,0,0,1.43.68,1.52,1.52,0,0,0,.7-.16,4.58,4.58,0,0,1,2.18-.49,15.88,15.88,0,0,1,2.55.29,18.18,18.18,0,0,0,3,.32,7.68,7.68,0,0,0,2.3-.33,1.29,1.29,0,0,1,.37-.06.32.32,0,0,1,.27.09,1.37,1.37,0,0,1,.19,1l-.12,1.64,1.62-.27a6.49,6.49,0,0,0,2-.78,3.68,3.68,0,0,1,1.2-.5.22.22,0,0,1,.16.07,32,32,0,0,0,4.23,2.69c2.9,1.63,5.63,3.17,6.89,6.34a1.94,1.94,0,0,0,1.84,1.36,2.33,2.33,0,0,0,.72-.12,1.19,1.19,0,0,1,.36-.06,3.77,3.77,0,0,1,1.37.43,8.92,8.92,0,0,0,1.36.51,21,21,0,0,1,3.85,1.57,26.86,26.86,0,0,0,5.67,2.19V85h0l-2.85-1.44c0-.07,0-.15,0-.22-.19-1.5-.88-2.26-2-2.26a2.77,2.77,0,0,0-.69.09,3,3,0,0,0-1.22-.29c-1.82,0-2,1.88-2.07,2.59v.1l-2.73-.69,1.89,2.8a6.33,6.33,0,0,1,.42.85c.43,1,1.08,2.46,2.68,2.46h.23a2.92,2.92,0,0,0,2.29-2.16c.31-.74.44-.93.65-1l1.27-.24-.06,2.47c1.95.35,2.18.4,2.3.75v2a2.81,2.81,0,0,0-.5-.19c0-.07-.1-.18-.14-.26a2.51,2.51,0,0,0-2.32-1.6h-.71l-.39.6c-.21.34-.44.67-.67,1-1.37,2-3.07,4.51-1.66,7.88a8.93,8.93,0,0,1,.81,2.93,49.73,49.73,0,0,1-.35,8.27,63.86,63.86,0,0,0-.42,7.07,6.38,6.38,0,0,1-.75,2.38c-.15.33-.3.66-.43,1a6.3,6.3,0,0,0-.2,2.65c0,.15,0,.28,0,.36a4.55,4.55,0,0,0,.06.82l-.35.08c-4.58,1-6.87,4.86-6.27,10.51l2.48.34a21.92,21.92,0,0,1,2.35-4.1,3.78,3.78,0,0,0,.53,1.4,2.42,2.42,0,0,0,.81.84c-1.36.31-1.94,1.72-2.34,2.68l-.16.39a2.18,2.18,0,0,0-.64.36,2,2,0,0,0-.59,2.32,1.67,1.67,0,0,0,1.51,1.22h.29l.29-.13a1.77,1.77,0,0,1,.44-.16,4.63,4.63,0,0,1,.33.66,3.94,3.94,0,0,0,1.1,1.65c.33.26.72.64.72,1s-.42,1-1.18,1.68a4.73,4.73,0,0,1-.77.46,4.34,4.34,0,0,0-2.14,1.91,3.38,3.38,0,0,0-1.63-.46c-1.7,0-2.46,1.53-3,2.55a4,4,0,0,1-.71,1.16l-3,2.09,1.09.08a6.59,6.59,0,0,0-1.41,2.17c-.13.28-.27.56-.4.81l.19-2a5.75,5.75,0,0,1-2.34-1.7A5.88,5.88,0,0,0,274,150c-3.8-1.35-6.1-4-7.71-8.86a4.38,4.38,0,0,0-4.19-3.28,5,5,0,0,0-.79.06h0a2.52,2.52,0,0,0-.36-1.2c-.06-.11-.13-.24-.18-.37-.86-2.05-2.58-3.1-4.1-4-1.33-.81-2.48-1.51-3-2.75a1.42,1.42,0,0,0-1.42-.82,3.34,3.34,0,0,0-1.64.43,1.81,1.81,0,0,0-.83,1.42,2.15,2.15,0,0,0,.83,1.74c3.09,2.54,4.8,6,6.61,9.66.83,1.67,1.68,3.4,2.67,5,.75,1.22,1.44,2.54,2.11,3.82a40.65,40.65,0,0,0,4.25,6.91c1,1.19,1.41,2,1.33,2.47s-.79,1.06-2.08,1.79h0l-.78-.92c-3.34-3.94-7.43-4.75-11-5.47l-1.45-.3a10.53,10.53,0,0,0-1.62-.18c-1.39-.08-1.89-.16-2.29-1.14a1.87,1.87,0,0,0-1.75-1.34,2.46,2.46,0,0,0-1.43.56l-.15.1h0a1.69,1.69,0,0,0-1.44.91,1.41,1.41,0,0,0-.05,1.46l.37.65h.93l.24-.06a4.11,4.11,0,0,1,.28.46,2.67,2.67,0,0,0,2.22,1.69c4,.1,7.68,1.54,11.9,3.21,1.25.49,2.54,1,3.9,1.5l.4.14a7,7,0,0,0-2.37,4.94,6.81,6.81,0,0,1-1.68,3.42c-2.66,2.26-5.2,5.17-4.27,9.63a2.66,2.66,0,0,0-1.71-.69c-1.51,0-2.29,1.42-3,2.67l2,1.58a.62.62,0,0,1-.37.11.59.59,0,0,1-.3-.07,4.09,4.09,0,0,1,.46.52,2.94,2.94,0,0,0,2.18,1.42,2.47,2.47,0,0,0,2-1.4,3.94,3.94,0,0,0,1.47.3c1.88,0,2.76-1.55,3.35-2.57a6.32,6.32,0,0,1,.56-.87c.41-.48,1.66-1.95,1.13-3.49a2.39,2.39,0,0,0-.11-.27h.93a3.06,3.06,0,0,0,2.4-1,2.28,2.28,0,0,0-.22-3.46c-.39-.37-.41-.39.17-1.35a9.24,9.24,0,0,0,.47-.85,5,5,0,0,1,2.62-2.06,7.93,7.93,0,0,0,3.53-2.73.87.87,0,0,1,.21-.24.92.92,0,0,1-.12.93,4.89,4.89,0,0,1-.71.8,6.64,6.64,0,0,0-2.08,3.41l-.84,3.58,2.89-2.26c.5-.39,1-.72,1.48-1s.69-.45,1-.69c-2.86,5-5.86,10-9.9,14.14l-.06.06a2.14,2.14,0,0,0-.61,2.51l-.14-.14a7.5,7.5,0,0,1-5,1.63,28,28,0,0,1-3.86-.37A30.29,30.29,0,0,0,251,189h-.45l-.28,2.55c.81.21,1.67.48,2.49.75a29.27,29.27,0,0,0,4.44,1.17l-8.82,1.72,0,2.53a17.68,17.68,0,0,0,4,.53,9.4,9.4,0,0,0,6.91-2.77l2.34-2.3a7.85,7.85,0,0,0,1.84-.9,1.6,1.6,0,0,0-.07.3,1.77,1.77,0,0,0,.43,1.4,2.24,2.24,0,0,0,1.74.68h9.19l-2.54-2.26a6.62,6.62,0,0,0-4.8-1.6,4.53,4.53,0,0,1-1.55-.18l-.23-.1h-.18l.41-.49.82-.8C274.11,181.9,279,172.8,283.8,164l1.51-2.77A3.94,3.94,0,0,0,286,164a3.2,3.2,0,0,0,1.44,1,5.74,5.74,0,0,0-1.74,3.06l-.86,3.13,2.77-1.68a5.3,5.3,0,0,1,1.27-.61,10,10,0,0,1,.2,1.25l0,.37a18.88,18.88,0,0,0,2.68,8c1.5,2.36,1.61,5.05,1.73,7.9a38.07,38.07,0,0,0,.31,4c.12.78-.19,1.14-1.15,2.06a8,8,0,0,0-1.83,2.26l-1.42,2.85,3-1.05a5,5,0,0,1,1.6-.33c1.19,0,1.71.79,2.57,3l1.91-.5v46c-.69,2.42-1.64,2.62-2.48,2.62a6.34,6.34,0,0,1-1.87-.35,8.76,8.76,0,0,0-2.67-.43,11.78,11.78,0,0,0-5.84,1.87l-1.66-.47a18.51,18.51,0,0,0-5-.69c-4.38,0-8.27,1.54-11.88,3.11l-.09,0A2.41,2.41,0,0,0,265.5,252a2,2,0,0,0,.33,1.74,2.14,2.14,0,0,0,1.83,1,3.34,3.34,0,0,0,1.42-.39,30.52,30.52,0,0,1,8-2.17,53.74,53.74,0,0,0,5.75-1.25l3.13.18.74,0a27.31,27.31,0,0,0,3.49-.3,25.09,25.09,0,0,1,3.15-.27,7.11,7.11,0,0,1,2.92.54,4.08,4.08,0,0,0-.54,2.73l.41,2.42,1.76-1.71a6.85,6.85,0,0,0,.66-.76v34.32c-.69-.45-1.34-1-1.95-1.42a25.82,25.82,0,0,1-3.3-3.28c-.49-.55-1-1.09-1.48-1.62l-2.07-2.16-.15,3c-.15,3.12,1.44,4.51,2.8,5.13a1.76,1.76,0,0,1,.52.33l0,.05c-.11.17-.16.17-.19.17a1.3,1.3,0,0,1-.61-.23,37.56,37.56,0,0,0-4.16-2l-1-.46-.09,0a8.82,8.82,0,0,0,.85-2.51c.08-.35.16-.7.26-1l.13-.43c.79-2.61,1.54-5.07,3.41-7.26,1.73-2,3.76-5.24,3.59-9l-.18-3.93-2.19,3.26a18.91,18.91,0,0,0-1.39,2.63,10.47,10.47,0,0,1-1.66,2.83c-4.46,4.65-7.2,10.47-8.61,18.3a18,18,0,0,1-.77,2.64l-.25.73.14-1.25a12.2,12.2,0,0,0-3-.5c-3.17,0-3.58,2.83-3.8,4.35l-.09.62c-.61-.2-1.24-.41-1.88-.59l-.19-.13a2.52,2.52,0,0,0-1.47-.58,1.92,1.92,0,0,0-1.77,1.29,2.53,2.53,0,0,1-.29.51c-.16-.08-.44-.27-.62-.4a8.72,8.72,0,0,0-.82-.52c-3.45-1.84-5.51-5-7.69-8.25a53.71,53.71,0,0,0-3.18-4.46c-1.2-1.46-2.46-2.89-3.69-4.28a71.43,71.43,0,0,1-7.51-9.56,7.83,7.83,0,0,0-.88-1.14l1.67,0-1-2a14.58,14.58,0,0,0-3.87-4.45l-.35-.3c-.68-.58-.75-.88-.76-.91h0a2.29,2.29,0,0,1,.79-.63l.25-.14a2.71,2.71,0,0,0,1.67-2l.18-1.1-1.06-.34a4.8,4.8,0,0,0-1.48-.24,5.4,5.4,0,0,0-3.83,1.8,2.85,2.85,0,0,1-.52.44,2.52,2.52,0,0,1-.31-.46,3.19,3.19,0,0,0-1.25-1.36c0-3.26-1.5-4.8-4.86-5.21L228,250a1.93,1.93,0,0,0,.8-1,2.53,2.53,0,0,0-.59-2.38l0,0c-.29-.57-.55-1.16-.82-1.78a13.48,13.48,0,0,0-3.44-5.27,23.55,23.55,0,0,1-2-2,14.78,14.78,0,0,0-4.85-4c-1-.46-1.39-1.41-1.94-3.05l-.08-.24a2.78,2.78,0,0,0,1.95-1.31,3.32,3.32,0,0,0,.26-.49,2.25,2.25,0,0,0,.94.21c1.49,0,2.39-1.4,3.18-2.64.69-1.08,1.46-2.1,2.27-3.18.47-.63.94-1.26,1.4-1.89s.92-1.19,1.43-1.81a16.28,16.28,0,0,0,4-7.22l-2.28-1.08c-.86,1.1-1.29,1.2-1.32,1.2a2.16,2.16,0,0,1-.55-.77,3.86,3.86,0,0,0,.4-.55,2.71,2.71,0,0,0,.33-2.5,2.14,2.14,0,0,0-1.63-1.22,11.62,11.62,0,0,1-2.42-.89,10.82,10.82,0,0,0-4.53-1.25l-.47,0-2.66.18,1.79,2a12.83,12.83,0,0,0,3.34,2.45,9.54,9.54,0,0,1,2.64,1.92,2.35,2.35,0,0,0,.27.27,15.31,15.31,0,0,0-1.75,4c-.59,1.78-1.1,3.32-2.45,4.4l-.29.23c-.18.15-.41.33-.59.47,0-.1-.1-.23-.17-.4-.17-.46-.62-1.66-1.87-1.66a2.24,2.24,0,0,0-1.52.69l-1.9,1.74c-2.39,2.19-4.86,4.46-7.31,6.66a8,8,0,0,0-1.78,2.61,11.29,11.29,0,0,1-.61,1.13,2.3,2.3,0,0,0,.63,3.06l-1.09,1.12,1.14.49a2.9,2.9,0,0,1-.84.15c-.28,0-.93,0-1.47-2a1.82,1.82,0,0,0-1-1.1h0a10.15,10.15,0,0,0-4.2-3,12.65,12.65,0,0,1-2.16-1.19,39.37,39.37,0,0,1-7.38-7.83,109.43,109.43,0,0,1-8.18-13.5c-1.4-2.59-2.86-5.27-4.41-7.85-.92-1.52-2.1-3.15-4.53-3.15a9.38,9.38,0,0,0-3,.59l.26,2.51c1.55.18,2.59.6,2.87,1.14.39.76-.47,2.34-.88,3.1a4.61,4.61,0,0,0,0,4.64l.17.4c.44,1.08,1,2.12,1.47,3.12a21,21,0,0,1,2.26,5.85c.41,2.52,1.87,2.79,2.47,2.79a2.83,2.83,0,0,0,1.5-.48,1.64,1.64,0,0,1,.83-.3c.68,0,1.22,1,1.35,1.49a4.4,4.4,0,0,0,3.23,3.6,2.62,2.62,0,0,0-.25.83c-.17,1.37.83,2.33,1.56,3,.27.26.83.8.85,1,0,2.32.87,4,2.25,4.81a3.25,3.25,0,0,0-1,1.06c-.06.09-.15.23-.21.3-1,.5-.89,2.1-.82,2.48a1.81,1.81,0,0,0,1.81,1.53h.24l.51,0c.41,0,.83,0,1.28.08s1,.09,1.52.09a5.38,5.38,0,0,0,3.7-1.3l2.72-2.35-3.67.08a6,6,0,0,1-3.39-1.45l-.13-.09a6.81,6.81,0,0,0,1.72-.55l.71-.33,0-.79a1.89,1.89,0,0,0-.64-1.48l.45.08.77.14c3.35.47,4.62,2.62,6.05,5.61a1.9,1.9,0,0,1,0,1.58,1.86,1.86,0,0,1-1.2,1l-1.39.44.6,1.33a19.18,19.18,0,0,0,3.51,4.89,27.4,27.4,0,0,1,2.1,2.53A5.2,5.2,0,0,0,205.9,252a3.36,3.36,0,0,0,2.08-.68,2.36,2.36,0,0,0,1-1.68,4,4,0,0,0-1.42-2.85c-.2-.22-.4-.43-.52-.61-.39-.54-.32-1,.39-2l.09.11a4.65,4.65,0,0,0,.65.66,7,7,0,0,1,1.53,2.07,10,10,0,0,0,2,2.71,2.94,2.94,0,0,0-1.93,1.31l-1.12,1.64,2,.36c1.46.27,1.62.94,1.85,2.81,0,.4.1.8.17,1.19a1.45,1.45,0,0,1-.66,1.63.93.93,0,0,1-.44.18h0s-.1-.07-.2-.34a2.78,2.78,0,0,0-2.36-1.71,1.62,1.62,0,0,0-1.55,1.1,2.9,2.9,0,0,1-.36.76,6.33,6.33,0,0,1-.77-.43,9.32,9.32,0,0,0-1-.53,3.35,3.35,0,0,0-1.42-.33,4.38,4.38,0,0,0-2.64,1.12,5.37,5.37,0,0,1-.76.5,1.88,1.88,0,0,0-1.1,1.41,2.29,2.29,0,0,0,.8,2,4.44,4.44,0,0,1,.35.41,3.31,3.31,0,0,0,2.83,1.51,5.29,5.29,0,0,0,.71-.05,6.79,6.79,0,0,1,1.48.75,15.09,15.09,0,0,0,1.91,1,1.83,1.83,0,0,0,.93,1.54l.64.38.65-.36a3.73,3.73,0,0,0,1.25-1.34l.21-.32a4.83,4.83,0,0,0,2.11.55,3.44,3.44,0,0,0,2.61-1.22,1.94,1.94,0,0,0,1.25.93,6.26,6.26,0,0,0-1.16,3.45l0,1.28,1.28,0h.48a3.2,3.2,0,0,0,2.6-1.35,2,2,0,0,0,1.37.53,2.94,2.94,0,0,0,.93-.17,7,7,0,0,1-.18.78,5.44,5.44,0,0,0-.26,2c.12,1.09,1.42,3.27,2.82,3.27h.39c.2,0,.27,0,.69.65a4.31,4.31,0,0,0,1.18,1.28,2.76,2.76,0,0,1,.18.35,3.74,3.74,0,0,0,1.72,1.92,22.11,22.11,0,0,1,5.34,4.64l1,1.11c.51.53.92,1,1.27,1.37,1.8,2,2.38,2.49,5.77,3.39a16.42,16.42,0,0,0,2.73,3,17.75,17.75,0,0,1,1.79,1.84,37.12,37.12,0,0,0,4.24,4.32l.09.08Zm-9-18.6c2.74,0,4.66,2.66,6.7,5.47l.75,1,2.24-1.24-.05-.13c-1-2.57-2-5.23-3.79-7.27-.67-.77-2.25-2.56-4.41-2.56a4,4,0,0,0-1.52.3,38.07,38.07,0,0,0-4,2c-.55.3-1.09.6-1.65.88l-.65.34-.25,4.33,2.16-1.44A8.48,8.48,0,0,1,192,281.4Zm11.72-9a3,3,0,0,0-2.44,1.05A1.73,1.73,0,0,0,201,275c.64,2.15,2.47,2.46,3.68,2.66a4.94,4.94,0,0,1,1.2.29,1.83,1.83,0,0,0,.79.18,2,2,0,0,0,1.58-.78,2.34,2.34,0,0,0,.45-2,3,3,0,0,0-3.24-2.44,5,5,0,0,1-.54,0l-.28-.46-.67,0ZM185.28,265a28.54,28.54,0,0,0-3.44.28c-.59.07-1.19.15-1.79.2l-1.18.1V267c0,.22,0,.44,0,.66a6.14,6.14,0,0,0,1.51,3.45c1.09,1.5,1.49,2.16.5,3.53l1.6,1.93a4.57,4.57,0,0,0,1.29-1l.18-.18.09.07a3.27,3.27,0,0,0,1.86.78,2.22,2.22,0,0,0,1.72-3.26,1.68,1.68,0,0,0-1.44-.69l-.35,0c0-.12,0-.23,0-.34a3.23,3.23,0,0,1,1.61-2.68,3.22,3.22,0,0,1,1.8.9l.49.51a12.58,12.58,0,0,0,1.76,1.65,3.89,3.89,0,0,0,2.22.78,2.23,2.23,0,0,0,2.2-1.55c.81-2.36,0-4.84-2.26-7a5.13,5.13,0,0,0-3.34-1.75,3.55,3.55,0,0,0-3,2c-.07.12-.12.19-.56.19l-.38,0C186,265,185.65,265,185.28,265ZM167.08,253a2.23,2.23,0,0,0-1,.26,2.26,2.26,0,0,0-1.32,1.66,2.63,2.63,0,0,0,.81,2.23c1,1,.74,2,.23,3.67-.13.42-.26.86-.36,1.3a14.36,14.36,0,0,1-.52,1.65c-.23.63-.48,1.34-.7,2.14l0,.1v.1c-.35,3.2,2.27,3.68,3.67,3.94a8.32,8.32,0,0,1,1.08.25,3.6,3.6,0,0,0,1.12.2,2.11,2.11,0,0,0,1.61-.65,2.25,2.25,0,0,0,.54-1.77c-.15-2.09-1.25-2.53-2.15-2.53a3.29,3.29,0,0,0-1.11.22,1.18,1.18,0,0,1-.39.08h-.12v0a10.49,10.49,0,0,0,.58-2.19,5.12,5.12,0,0,1,.65-2c1.91-2.67,1.63-5.16-.83-7.21l0-.09A1.91,1.91,0,0,0,167.08,253ZM64.47,262.33a2.87,2.87,0,0,0-1.88,1.77,2.35,2.35,0,0,0,.25,2.06,16,16,0,0,0,2.82,2.94l.58.51h.51a2.35,2.35,0,0,0,1.89-1.39,1.7,1.7,0,0,0-.4-1.89,4,4,0,0,1-.72-1.3,4.5,4.5,0,0,0-2.08-2.64l-.47-.23ZM180,245.55a2.26,2.26,0,0,0-1.72,1c-.66.89-1.09,2.22.62,3.5a2,2,0,0,1,.22.17,3.54,3.54,0,0,0,2.5,1.25c1.95,0,2.95-2.05,3.53-3.6l.56-1.48-1.56-.25a2.84,2.84,0,0,0-.45,0,3.76,3.76,0,0,0-1.67.46l-.35.16A1.91,1.91,0,0,0,180,245.55ZM42.78,238.32A6.53,6.53,0,0,0,40,239l-2,.9,1.74,1.31a9.21,9.21,0,0,0,4.59,1.54,7.17,7.17,0,0,1,3,.84l1.57-2C46.52,239.28,44.66,238.32,42.78,238.32Zm-13.4-20.51a2.38,2.38,0,0,0-.45,1.35,3.35,3.35,0,0,0,1.58,2.51c.14.11.27.22.39.33a8.36,8.36,0,0,0,1.22.91c.75.49,1.15.77,1.35,1.39a1.87,1.87,0,0,0,1.76,1.43,2.53,2.53,0,0,0,2.12-1.59,6.38,6.38,0,0,0-.81-7,2.32,2.32,0,0,0,.39-.15A2.38,2.38,0,0,0,38,215v-.07a2.42,2.42,0,0,0-.5-2,2.5,2.5,0,0,0-2-.78h-.15c-.35,0-.43,0-.71-1a4.72,4.72,0,0,0-3.37-3.8l-2.1-.51.55,2.1a4.54,4.54,0,0,1-.69,2.64C28.29,213.21,27.18,215.62,29.38,217.81Zm207.22,4.55,4.41-1.27c3.63-1,5.59-3.35,7.31-5.38a23.75,23.75,0,0,1,2-2.17,4.14,4.14,0,0,0,1.38-3.23c2.45-.83,4-2.75,5.33-4.47.48-.6.92-1.17,1.4-1.68l.33-.33c.89-.88,2.55-2.51,1.52-5.13l-.74-1.88-1.4,1.45a18.51,18.51,0,0,0-2.25,3.06,9.16,9.16,0,0,1-2.92,3.37,11.08,11.08,0,0,0-3.82,3.93h0ZM286,197a4.92,4.92,0,0,0-2.29.84c-.25.14-.49.28-.68.36a2.68,2.68,0,0,0-1.29,1.68,3.77,3.77,0,0,1-.2.46c-.19.32-.37.65-.55,1a5.55,5.55,0,0,1-1.77,2.33,28.9,28.9,0,0,0-5.45,4.34,30.88,30.88,0,0,1-4.19,3.51l-1,.65,1.54,2.88,1.13-.59.54-.27a11.79,11.79,0,0,0,1.36-.74c5.92-3.9,10-7.85,13-12.41a4.08,4.08,0,0,1,.37-.18,2.26,2.26,0,0,0,1.51-1.5,1.89,1.89,0,0,0-.53-1.69A2,2,0,0,0,286,197ZM19,207.73a2.37,2.37,0,0,0-1.63,2.79,2.67,2.67,0,0,1,0,.31,2.92,2.92,0,0,0,.5,2.53,3,3,0,0,0,2.38,1.07h0a2.05,2.05,0,0,0,1.63-.65,2.37,2.37,0,0,0,.41-2c0-.09,0-.18,0-.26.58-1.87-1-2.86-1.61-3.29a5.09,5.09,0,0,1-.45-.31l-.55-.45Zm75.86,1c.17,1.81.44,4.85,3.55,4.85a8,8,0,0,0,1.53-.18,2.89,2.89,0,0,0,2-1.15,2,2,0,0,0,.2-1.57c-.21-.77-1-2.23-2.34-2.23a1.9,1.9,0,0,0-1.24.47l-.21.16-.16-.23a3.47,3.47,0,0,0-1.6-1.45l-1.92-.71Zm43.5-4.59a4.49,4.49,0,0,1,.63,1.68l1.2,4.61,1.29-4.59a4.39,4.39,0,0,1,2.38-2.84l-.75-2.41H143c-.39,0-.46-.07-.82-.61a4.19,4.19,0,0,0-.84-1l-.15-.13a3.21,3.21,0,0,0-1.91-1,1.51,1.51,0,0,0-1.49,1.29c-.09.52-.49.81-1.36,1.35s-2.51,1.54-2.51,3.61v2.26l1.94-1.14a8.76,8.76,0,0,1,2.52-1.14Zm-32-4.28a3,3,0,0,0-2.33,1.67,1.84,1.84,0,0,0,.22,1.83,11.69,11.69,0,0,0,4,3.11,16.17,16.17,0,0,1,2.26,1.43,1.62,1.62,0,0,0,1,.35,2,2,0,0,0,1.93-2c0-.57-.24-1.2-1.65-2.66-.61-.63-3.71-3.78-5.21-3.78h-.1Zm123.31,1.38c-.19,2.31.94,3.23,1.94,3.6a2.73,2.73,0,0,0,.95.16,4.31,4.31,0,0,0,2.94-1.31,1.4,1.4,0,0,0,.3-1.19c-.46-2.1.64-3.57,1.91-5.29a12.13,12.13,0,0,0,2.31-4.2c.53-2.1,1.65-2.34,2.45-2.34H243a4.58,4.58,0,0,0,2.76-1.08l-3.61,5.07,2.1,1.51a4.36,4.36,0,0,1,1.42-.59c1.16-.36,2.61-.8,3.12-2.19s-.26-2.81-.88-3.77l-.72-1.12a1.7,1.7,0,0,1,.88-.32,1.59,1.59,0,0,1,.71.2l1.27.65.52-1.33c0-.05,0-.1.08-.16a2.49,2.49,0,0,0,.33-1.07l.09-.13a2.21,2.21,0,0,0,.5-1.74,2,2,0,0,0-.94-1.28l-.06,0a4.67,4.67,0,0,0-2.53-.95,3.34,3.34,0,0,0-2.09.78,6.07,6.07,0,0,1-2.91,1.46,1.11,1.11,0,0,1-.51-.12,3.65,3.65,0,0,0-1.64-.45,2.77,2.77,0,0,0-2.44,1.76l0,.09a28.29,28.29,0,0,1-2.34,3.39c-1.57,2.06-3.19,4.19-3.85,7a5.34,5.34,0,0,1-1.12,1.75l-.42.52A3.54,3.54,0,0,0,229.68,201.29Zm-28.82.51a4.77,4.77,0,0,1,2.05.58,6.89,6.89,0,0,0,3.05.79c1.93,0,3.62-1,5.17-3.08l1.82-2.43-3,.37a16.33,16.33,0,0,1-2,.12c-1.24,0-2.5-.11-3.71-.22s-2.48-.22-3.72-.22a12.33,12.33,0,0,0-6.91,1.86l-2.77,1.79,3.25.57a5.24,5.24,0,0,1,1.06.38,5.61,5.61,0,0,0,2.27.61,3.53,3.53,0,0,0,2-.64A2.56,2.56,0,0,1,200.86,201.81Zm-120.75-24a7.49,7.49,0,0,1-.38,2.11l-.1.34a2.68,2.68,0,0,0,.85,3.36c1.5,1,2.37,2.65,3.21,4.29.28.54.56,1.1.87,1.62a24,24,0,0,0,1.53,2.22c1.11,1.48,2.15,2.88,2.27,4.51a9.62,9.62,0,0,0,2.22,5.06c.34.47.66.92.94,1.39l2.24-1.28a3.08,3.08,0,0,1-.21-1.21,7.19,7.19,0,0,0-.18-1.44,5.24,5.24,0,0,0,3.14,1,7.11,7.11,0,0,0,1-.07l2.06-.29-1.17-1.72a10,10,0,0,0-2.6-2.91,2.34,2.34,0,0,0,.25-1.25,3.37,3.37,0,0,0-3.27-3.34,3.31,3.31,0,0,0-.62.06,3.7,3.7,0,0,1-.48.07,4.78,4.78,0,0,1-.29-.55l-.53-1.11a32,32,0,0,1-2.24-5.53,24,24,0,0,0-3.25-6.28c-.6-.93-1.22-1.89-1.74-2.83-.35-.62-1.35-2.41-3-2.68a4.65,4.65,0,0,0,0-1.25,3.38,3.38,0,0,0-1.12-2.2,3,3,0,0,0,.83-1.64,2.45,2.45,0,0,0-.82-2.25c-1.26-1.06-1.39-2.39-1.44-4.15v-.12c0-2.1-1.09-2.55-2-2.55a2.34,2.34,0,0,0-.4,0,3.17,3.17,0,0,1-.54.05c-.63,0-1-.11-1.35-2.37l-.15-1.06h.14a1.86,1.86,0,0,1,1.89,1l.76,1.31,1.17-.95a14.5,14.5,0,0,1,3.52-1.87,15.63,15.63,0,0,0,6.29-4.09l3.23-3.73L86,147.15c-.68.24-1.26.48-1.77.7a8,8,0,0,1-2.15.7,7.38,7.38,0,0,0-2.06.59,4.59,4.59,0,0,1-1.32.4.26.26,0,0,1-.21-.08,4.81,4.81,0,0,0-3.06-1.54c-1.7,0-2.41,1.55-2.93,2.68a7.72,7.72,0,0,1-.67,1.27l-1.77,2.41,1.62-.2a7.33,7.33,0,0,0-3.85,4.66c-.27,1-.52,1.34-.71,1.45l-.07-.21a3.88,3.88,0,0,0-1.11-2l-1.16-1L64,158.3c-.82,1.36-2.3,1.91-3.87,2.49l-.62.23a2.09,2.09,0,0,1-.71.17c-.16,0-.29-.16-.62-1.16A5.06,5.06,0,0,0,57,157.79l-.19-.18a3.35,3.35,0,0,0-1.26-.88,4.82,4.82,0,0,0-1.53-.3,2.35,2.35,0,0,0-2,1.06,2.68,2.68,0,0,0-.2,2.47,2.28,2.28,0,0,0,1.66,1.4c.71.14,1.07.7,1.61,1.59a10,10,0,0,0,.66,1c.18.23.38.46.59.71.62.71,1.38,1.6,1.29,2.21-.06.4-.53.88-1.32,1.37l1.18,2.29.33-.14a44.5,44.5,0,0,0,4.17-1.94l-.08.17a14,14,0,0,0-1.26,3.17,3.81,3.81,0,0,1-.73.8,2.8,2.8,0,0,0-1,2.75,2.42,2.42,0,0,0,1.9,1.7,8.85,8.85,0,0,1,2.6,1.4,8.49,8.49,0,0,0,4.59,1.91,5.79,5.79,0,0,0,4.32-2.28,3.56,3.56,0,0,1,.35-.14l.31-.11a4.75,4.75,0,0,1,1.81-.3c.43,0,.88,0,1.35.06s.93.06,1.41.07A13.11,13.11,0,0,1,80.12,177.84ZM126.91,196a2.55,2.55,0,0,0-.23,2.35,2.79,2.79,0,0,0,2.57,1.49h.26a2.76,2.76,0,0,0,2.3-1.18,2.34,2.34,0,0,0,.26-2.19,3.59,3.59,0,0,1-.11-.64c-.1-.88-.35-2.94-2.8-3.06h-.32a2,2,0,0,0-1.95,3.18ZM141.07,193a7.3,7.3,0,0,1,2.79.81,10.18,10.18,0,0,0,4.11,1.08h.39l1.58-.09-.5-1.85c-.37-1.37-.56-2.19-.16-3.16s-.2-2.23-.78-3.23c-.11-.19-.22-.38-.32-.56a1.88,1.88,0,0,0-1.7-1,2.22,2.22,0,0,0-1.35.47,3.15,3.15,0,0,0-.88,4l-.33,0h-.16a6.1,6.1,0,0,1-1.08-.19A7.82,7.82,0,0,0,141,189h0a2.13,2.13,0,0,0-1.55.67,2.45,2.45,0,0,0-.69,1.76,1.59,1.59,0,0,0,1.7,1.6h.56Zm61.24-8c-1.09,2.95,1.06,4.22,2.21,4.9.71.42,1.37.79,2,1.16a34.79,34.79,0,0,1,4.16,2.56l.16.12a3.18,3.18,0,0,0,1.9.86,1.93,1.93,0,0,0,1.46-.7,2,2,0,0,0,.54-1.56,2.42,2.42,0,0,0-1.18-1.66,2.36,2.36,0,0,1-.27-.21,22.09,22.09,0,0,0-5-3.47,25.28,25.28,0,0,1-4-2.55l-1.4-1.17Zm-42.77,4.31a1.76,1.76,0,0,0,1.68,1.25,3,3,0,0,0,1.91-1l.17-.15a2.27,2.27,0,0,0,1.13-1.72,2.19,2.19,0,0,0-1-1.78l-.12-.09a3.36,3.36,0,0,0-2.71-2.25l-.47-.14a7.37,7.37,0,0,0-1.53-3.48,7.75,7.75,0,0,1-.84-1.42,6.43,6.43,0,0,0-2.69-2.81c-.41-.28-1.18-.79-1.18-1,0-2.78-1.27-4.88-2.39-6.73a16,16,0,0,1-1.63-3.16,3.72,3.72,0,0,0-3.81-2.67h-.14a3,3,0,0,0-2.91,2.17,4.77,4.77,0,0,1-.21.44,5.83,5.83,0,0,0-.57,3c0,1.37-.07,1.84-.81,2.25l-1.14.63.63,1.14c.06.11.13.22.21.33l.07.1a12.17,12.17,0,0,0,1.71,4,10.51,10.51,0,0,1,1.56,3.72L147,180c0-.19,0-.38,0-.57a2.78,2.78,0,0,1,.06-.65c.17-.51.56-.72,1.48-1.14l.18-.08a10.45,10.45,0,0,0,1.2,1.23c1.17,1.06,1.52,1.49,1.18,2.55a3.29,3.29,0,0,0,.23,2.59,1.65,1.65,0,0,0,1.34.68,2.47,2.47,0,0,0,1.44-.55,8.64,8.64,0,0,1,1,1.64C155.93,187.18,157,189.16,159.53,189.38ZM63.09,183a6.53,6.53,0,0,0-2.4.53l-1.31.52.64,1.26a4.1,4.1,0,0,0,2.08,1.87c.47.23.61.32.68.47a2.13,2.13,0,0,0,2,1.29,3,3,0,0,0,2-.85,2.14,2.14,0,0,0,.78-1.68,2.24,2.24,0,0,0-1.06-1.64l-.18-.14A3.82,3.82,0,0,0,63.09,183Zm129.68-7.85a2.38,2.38,0,0,0-2.15,1.21,2,2,0,0,0-.09,1.75A2.45,2.45,0,0,0,192,179.5a8.7,8.7,0,0,1,2.79,1.82,23.7,23.7,0,0,0,2.8,2.08l2.77,1.7-.85-3.14a9.59,9.59,0,0,0-4.5-5.78l-.81-.57A2.46,2.46,0,0,0,192.77,175.15Zm-63.5-10.77a3.6,3.6,0,0,0,.15,2.41c.69,1.55,2.37,2.15,3.37,2.5l.24.09c.33.12.38.21.56,1a3.49,3.49,0,0,0,1.88,2.68c.88.42,1.6,1.26.89,4.54,0,0-.12.2-.2.31a2.41,2.41,0,0,0-.5,2,2.52,2.52,0,0,0,2.23,1.56,2.16,2.16,0,0,0,1.94-1.69c0-.1.09-.23.12-.31a3.92,3.92,0,0,0,1.32-3.46,3.4,3.4,0,0,0-.84-3.26,3,3,0,0,1-.53-.87c-1.51-6.18-6.22-9.53-10.77-12.78l-.32-.23a2.57,2.57,0,0,0-1.48-.49,2.11,2.11,0,0,0-2.07,1.62,2.36,2.36,0,0,0,.2,2,2.33,2.33,0,0,0,1.69,1A5.17,5.17,0,0,1,129.27,164.39ZM14,149.8a2.28,2.28,0,0,0-.89.18l-.71.3-.08.77,0,.3c0,.18,0,.36-.06.54-.27,1.7.38,3.79,1.89,4.22a3.62,3.62,0,0,0,1,.13,8.81,8.81,0,0,0,2.68-.58l.54-.17a2.3,2.3,0,0,0,1.41-1.27,2.14,2.14,0,0,0,0-1.81,8.25,8.25,0,0,0-.66-1.08l-.25-.37-1.08-1.66L16.63,151l-.19.26-.23-.23A3.17,3.17,0,0,0,14,149.8Zm47.7-9.37a8.72,8.72,0,0,0-4.64,2l-2.44,1.69,15.78,3.47-.86-2.24A3.36,3.36,0,0,0,66.14,143a2.61,2.61,0,0,1-.57-.06A4.6,4.6,0,0,0,61.69,140.43Zm-7.47-3.82a3.29,3.29,0,0,0-1.94.64c-.1.07-.23.14-.35.22-1.46.85-1.9,1.84-1.29,2.94a2.84,2.84,0,0,0,2.13,1.32,2.26,2.26,0,0,1,.6.18.59.59,0,0,1,.07.24l.39,2.44,1.78-1.71.85-.81c.58-.55,1.05-1,1.51-1.47a2.33,2.33,0,0,0,.53-2.33,1.46,1.46,0,0,0-1.35-.92,3.29,3.29,0,0,1-1-.29A5.21,5.21,0,0,0,54.22,136.61Zm66.33-1.21c-.68,2.26,1.05,3.51,2.1,4.25.83.6,1.35,1,1.44,1.53.12.69,1.39,3,3.31,3a2.57,2.57,0,0,0,2-1,2.35,2.35,0,0,0,.61-1.82c-.13-1.22-1.22-2-2.09-2.69l-.42-.32a3.78,3.78,0,0,1-1.55-4.34,4,4,0,0,0,.14-3.25,2.59,2.59,0,0,0-1.79-1.25,2.66,2.66,0,0,0-.6-.07c-1.68,0-2.23,1.54-2.53,2.37a5.28,5.28,0,0,1-.21.54,4.63,4.63,0,0,0-.36,2.14C120.57,134.76,120.57,135.07,120.55,135.4ZM95.14,118.76a4.2,4.2,0,0,0,0,1.07,2.4,2.4,0,0,1,0,.35c-.17,1-.39,2.1-.6,3.13-.84,4.05-1.7,8.24-.19,12.51l0,.07c.65,1.82.84,2.37-.8,3.7l1.29,2.21c5.42-2.19,12.15-9.2,14.11-13.54a1.76,1.76,0,0,1,.11-.16,1.87,1.87,0,0,0-.14-2.72,2.23,2.23,0,0,0-1.48-.57,3.4,3.4,0,0,0-1.44.39,3.41,3.41,0,0,1-.37.16,10.26,10.26,0,0,1-2.89.59c-.7,0-1.36,0-1.37-2.31,0-3.41-1.87-5-4-6.44l-.25-.17,2.07-2.11-3.52.33-.32,0a6.25,6.25,0,0,1-2.21-.55,8.94,8.94,0,0,0-3.3-.75,6.75,6.75,0,0,0-.87.06l-3.32.44v-.09c0-2-1-2.38-1.75-2.38a2.44,2.44,0,0,0-1.1.3h-.55c-2,0-3,.94-3,2.79a3.93,3.93,0,0,0,1.82,3.17c.47.38.77.63.82.91l.27,1.36,1.33-.36c2.63-.7,2.22-2.9,2.06-3.73a3.78,3.78,0,0,1-.09-.68l.35-.43h0l2.87,1.19a5.54,5.54,0,0,1,1.46,1.1,4.72,4.72,0,0,0,3.18,1.66A3.58,3.58,0,0,0,95.14,118.76Zm-11,7.25c-.83,0-3.34,0-3.45,3.12a2.5,2.5,0,0,0,.67,1.89,3.39,3.39,0,0,0,2.55.89h.62l.2-.08c.2-.08.46-.16.73-.24,1.17-.34,3.13-.91,3.49-3.43a2.56,2.56,0,0,0-.56-2,2.06,2.06,0,0,0-1.55-.73,1.93,1.93,0,0,0-1.33.53,1.83,1.83,0,0,1-.9.12Zm27.37-.37,1.53-.75,3.09-1.4-.72-.21a20.49,20.49,0,0,0,3.3-4.27c.45-.7.87-1.36,1.33-2a2.77,2.77,0,0,0,.54-2.33A2.62,2.62,0,0,0,119.1,113a1.62,1.62,0,0,0-.69-.15,4,4,0,0,0-2.42,1.11l-.39.49.13.64c.24,1-.16,1.45-1.35,2.48a7.88,7.88,0,0,0-1.69,1.8l-.22.35a9.46,9.46,0,0,0-1.07,2.09l-.18-1.76c-.7,0-.91-.31-1.39-1.84-.43-1.38-1.09-3.47-3.64-3.62l-1.68-.1.66,3.19c.21,1,.41,2,.63,3,.68,3,2.5,4.84,4.87,4.84a4.85,4.85,0,0,0,.79-.07ZM124.68,115c0,.21-.08.43-.12.58a4.69,4.69,0,0,0-.17,1.35c.17,2,.81,4.43,4.33,4.74h.33c3.31,0,7.89-4.17,8.31-7.56a1.56,1.56,0,0,0-.17-.9h.06c.43,0,1.46-.16,1.75-1.69v0a10,10,0,0,0,.37-1.52,4,4,0,0,0,.64.05,2.43,2.43,0,0,0,1.84-.74,3.73,3.73,0,0,0,.77-2.88,4.75,4.75,0,0,1,2.12-3.91A14,14,0,0,0,146,101.4c.78-.72,1.51-1.4,2.22-1.4a2.35,2.35,0,0,1,1.35.59,2.33,2.33,0,0,0,1.52.7,1.67,1.67,0,0,0,1.08-.4l.52.43c.91.76,1.77,1.48,2.69,2.15a4,4,0,0,0,2.29.76,2.26,2.26,0,0,0,2.27-1.49c.66-2-.39-3.55-1.24-4.76s-1.22-1.81-1-2.71a2.31,2.31,0,0,0,.06-.27,18.65,18.65,0,0,0,3.24.22h1.13c.47,0,1,0,1.59,0l3.85.24-3.26-2.8a8.76,8.76,0,0,0-4.17-2.37,1.27,1.27,0,0,1-.62-.23,4.3,4.3,0,0,1,.34-1.36l.09-.26a1.54,1.54,0,0,0,.44.06h.18l.33,0a2.85,2.85,0,0,0,2.23-.93l.16-.19.95.25a18.61,18.61,0,0,0,4.65.66,6.88,6.88,0,0,0,5.09-1.7,4,4,0,0,0,1.1-3L174.92,80l-2.16,2.79C172,83.78,171,84,169.48,84h-1.24a6.2,6.2,0,0,0-4.49,1.39,1.9,1.9,0,0,0-.42-.66c-.46-.47-.59-.65-.5-1.74l0-.26c.16-2,.3-3.8,1.37-5.16a4.19,4.19,0,0,0,1.12-3.16,3.83,3.83,0,0,0-1.73-2.56l-.55-.4-.64.22A2,2,0,0,0,161,73a1.91,1.91,0,0,0,.35,1.62c-.35.17-.66.36-1,.53a3.52,3.52,0,0,1-1.74.69,2.07,2.07,0,0,1-.58-.09,4.39,4.39,0,0,0-1.22-.19,2.43,2.43,0,0,0-2.23,1.19c-.29.53-.62,1.66.44,3.35.25.4.26.42-.38,1.35l-.16.23a1.7,1.7,0,0,1-.23.28l-.43-.25a4.14,4.14,0,0,0-1.28-.58c0-.17.09-.35.13-.53a3.58,3.58,0,0,0-2.44-4.09,6,6,0,0,1-2-1.07A9.73,9.73,0,0,0,145.5,74l-2.13-.64.49,2.17a4.07,4.07,0,0,0,2.85,3.27c2.16.59,2.24,1.82,2.19,4.35,0,.43,0,.86,0,1.28s0,1.42-.4,1.51h0a4.61,4.61,0,0,1-.32-.65,7.39,7.39,0,0,0-.36-.77c-.47-.83-1.06-1.86-2.21-1.86s-1.69.83-2.27,1.73a7.59,7.59,0,0,0-1.25,3.1l-.76-.41c-1.93-1-3.13-1.73-3.47-3.52A2,2,0,0,0,135.65,82a10.17,10.17,0,0,0-1.81.23l-.35.06-1.61.29.65,1.5a3.76,3.76,0,0,0,1.82,1.78c.12.07.29.16.38.23a4.91,4.91,0,0,0,2,3.48,7.63,7.63,0,0,1,.75.73,7.11,7.11,0,0,0,1.55,1.29,2.86,2.86,0,0,1,1,.91c1.47,3.32,0,5.7-2,8.7-.32.51-.65,1-1,1.53-.43.72-.69.72-.94.72s-.32,0-.48,0-.47,0-.71,0h-.17a5.07,5.07,0,0,0-3.77,1.38,4.33,4.33,0,0,0-.83,3.43,7.88,7.88,0,0,1-.44,4.27l-.25.54a10.8,10.8,0,0,0-1-.42,5,5,0,0,1-1.06-.47c-.37-.26-.76-.48-1.13-.69-1.67-.95-2-1.2-1.32-2.61a2.24,2.24,0,0,0,.1-1.44c0-.12,0-.26-.06-.42l-.23-2.56-1.92,1.7c-.21.19-.43.36-.64.54-1.24,1-2.95,2.4-2.12,5.18.36,1.22,2,3.56,3.25,3.56h.28l.27-.12A6.81,6.81,0,0,1,124.68,115Zm-40-31a5.06,5.06,0,0,0-2.95,1.18l-1.42,1,1.41,1c4.13,3.07,5,5.29,3.4,8.79-1.4,3.08-.68,5.92-.05,8.42a15,15,0,0,1,.66,4.28,2.48,2.48,0,0,0,.63,1.9,2.13,2.13,0,0,0,1.56.66,2.49,2.49,0,0,0,1.72-.71,7,7,0,0,1,.79-.61c1-.7,2.66-1.87,2.05-4A1.61,1.61,0,0,0,91,104.74a1.69,1.69,0,0,0-.81.21v-.24a11.36,11.36,0,0,0-.37-2.59,11.8,11.8,0,0,1,0-6.85,15.5,15.5,0,0,1,.6-1.53c1-2.35,2.54-5.91-2.53-8.69A6.62,6.62,0,0,0,84.73,84ZM199.18,98.05c-.22.48-.48,1-.76,1.47a11,11,0,0,0-1.79,6.07l.14,2.58,2-1.65c2.35-2,2.58-4.44,2.78-6.63,0-.38.07-.76.11-1.14ZM53.59,78.14a9.37,9.37,0,0,0-1.14.09c-.23,0-.46.06-.69.07l-.47,0-3.11,2.9,2.61.44c1.3.2,1.52.64,1.55,2a2.14,2.14,0,0,0,2,2.1,1.94,1.94,0,0,0,1-.28c2.68-1.58,2.53-4.76,2.47-6-.09-1.85-1.5-1.91-1.66-1.91a2.68,2.68,0,0,0-1.38.49l-.32.18A4,4,0,0,0,53.59,78.14Zm54.79-15.38A2.59,2.59,0,0,0,105.86,65c-.37,1.76-.72,3.56-1.09,5.46l-1,5.25,2.52-1.56c2.91-1.8,5.27-6.75,4.52-9.45a2.53,2.53,0,0,0-2.34-1.93ZM61.14,66.44a4.74,4.74,0,0,0-1.49,3.46c.09,1.76,1.42,3.12,2.41,4L63.34,75l.74-1.52a4.48,4.48,0,0,0-.34-4.16c-.35-.73-.55-1.2-.42-1.61ZM96.21,62.2l3,1.26a9.24,9.24,0,0,0,3.52.87,5.34,5.34,0,0,0,4.56-3c1.57-2.6,3.24-5.66,3.23-9.07a4.71,4.71,0,0,0-.27-1.44l.36.1a2,2,0,0,0,.56.08,2.16,2.16,0,0,0,1.62-.77,2.94,2.94,0,0,0,.71-2.26,3,3,0,0,1,.34-2.18,3.81,3.81,0,0,1,2.61-.9,3.86,3.86,0,0,0,3.28-3A3.56,3.56,0,0,0,118.59,38a6.49,6.49,0,0,0-3.92-1.28,12.47,12.47,0,0,0-4.83,1.22,2.63,2.63,0,0,0-1.45,3.36,2.86,2.86,0,0,1,.08.57l-.56,1.61.78,0a4.78,4.78,0,0,0-2.5,4,3,3,0,0,0-.67-.08,2.46,2.46,0,0,0-1.85.81,3.67,3.67,0,0,0-.87,2.6,3,3,0,0,1-.18.78,3.51,3.51,0,0,0,1.54,4.57,1.37,1.37,0,0,1-.14.73,3.13,3.13,0,0,1-1.77,1.66L97.66,60.3l2.53.4Zm-.11-13.74a1.79,1.79,0,0,0-1.61,1,2.85,2.85,0,0,1-.79.73,3.77,3.77,0,0,0-1.84,2.77A4.27,4.27,0,0,0,94,57.46l.48.25.51-.16a3.39,3.39,0,0,0,2.29-3.42c.05-.63.1-.91.23-1,.77-.5,1.49-1.45.49-3.2a2.13,2.13,0,0,1-.14-.27A1.86,1.86,0,0,0,96.11,48.45ZM73.63,41.74l-.12.08a2.24,2.24,0,0,0-1.06,1.42c-.08.46-.11.9-.14,1.34-.12,1.54-.25,2.17-1.17,2.61l-.57.27-.14.63a2.25,2.25,0,0,0,.43,1.65l.16.19a3.71,3.71,0,0,0,2.81,1.75A3,3,0,0,0,75,51.46c2.63-1.06,2.36-3.3,2.19-4.63-.11-.86-.15-1.4.09-1.71a1.77,1.77,0,0,0,.12-1.92,3.22,3.22,0,0,0-2.84-1.81H74Zm160-1.84a1.72,1.72,0,0,0-.55.74,2.17,2.17,0,0,0,.64,2.3,2.78,2.78,0,0,0,2.06,1,2.61,2.61,0,0,0,1.74-.69,4.83,4.83,0,0,0,1-1.36c.09-.16.17-.32.27-.46a10.87,10.87,0,0,1,1-1.34,9.43,9.43,0,0,1,.65,1.33c.58,1.38,1.42,2.08,2.51,2.08a3.73,3.73,0,0,0,1.61-.46l.25-.11a2.43,2.43,0,0,0,1.55-1.7,3.18,3.18,0,0,0-1-2.63,2.41,2.41,0,0,1-.29-.51,2,2,0,0,0,.83-1.89c-.19-1-1.08-1.21-1.66-1.39a7.14,7.14,0,0,1-.76-.26c-.38-.16-2.24-1-1.71-2.79a2.8,2.8,0,0,1,.28-.67,6.41,6.41,0,0,1,.82.47,8.4,8.4,0,0,0,1,.58,6.84,6.84,0,0,0,2.84.74,5.23,5.23,0,0,0,2.67-.77L252,30.62l-2.85-.87q-.91-.28-1.68-.57l2.3.41c.75-4.22.83-4.22,1.71-4.22.53,0,1.27.08,2.2.19l1.85.21L255.05,24c-.28-1.11-.86-3.43-2.82-3.43-.88,0-1.76.48-3,1.65a1.24,1.24,0,0,1-.57.36,1.24,1.24,0,0,1-.19-.23c-.25-.38-.55-.79-.85-1.21-.51-.7-1.58-2.16-1.53-2.64.42-1.43.58-2.48,0-3.23a1.62,1.62,0,0,0-1.32-.65l-.3,0a8.93,8.93,0,0,0-.32-2,6.13,6.13,0,0,1-.26-2.32l-2.34-.91c-1.64,2.41-2.82,3.39-4.08,3.39a4.64,4.64,0,0,1-2.34-.83,5.6,5.6,0,0,0-2.92-.77,5.12,5.12,0,0,0-3.19,1,3.55,3.55,0,0,1-2.25.8,4.57,4.57,0,0,1-1.41-.23,11.4,11.4,0,0,0-3.55-.48l-1.41,0-1.32,0a8.24,8.24,0,0,1-2.81-.38l-1.06,2.35a19,19,0,0,0,9.66,2.1c1.06,0,2.12,0,3.14-.07l.95,0c.72,0,1.37,0,2,0a11.43,11.43,0,0,1,4.55.75c-1.45,2.38-1,4.92-.42,6.9a4.35,4.35,0,0,1-.38,2.66,6.6,6.6,0,0,0-.48,3.84,3.18,3.18,0,0,1-1.54,3.65,2.82,2.82,0,0,0-1.46,3.44,2.54,2.54,0,0,1,.07.46,1.41,1.41,0,0,0,.18,1.29,1.8,1.8,0,0,0,1.58.69A4.17,4.17,0,0,0,233.61,39.9ZM104.93,29.81a6.47,6.47,0,0,1-.62.88c-.14.18-.28.35-.38.5a50.12,50.12,0,0,1-3.71,4.5c-.55.62-1.1,1.23-1.63,1.86l-1,1.2,1.38.77a7.21,7.21,0,0,0,3.49,1.11c1.94,0,3.36-1.27,4.24-3.79a5.59,5.59,0,0,1,1.07-1.34A8.11,8.11,0,0,0,109,33.94c.4-.73,1-.93,2.06-1.24A6.24,6.24,0,0,0,114.23,31a3.69,3.69,0,0,0,.72-3.72,4.36,4.36,0,0,1-.11-.53l1.42-1.06-1.4-1-.11-.1a2.11,2.11,0,0,0-1.21-.64l-.42,0A2.4,2.4,0,0,0,111,25a4.2,4.2,0,0,0-2-2.57,2.42,2.42,0,0,0-1.35-.45,2.58,2.58,0,0,0-2,1.19,3.13,3.13,0,0,1-.24.28,13.83,13.83,0,0,0-2.22,2.28,2.82,2.82,0,0,0-.56,2.53,2.09,2.09,0,0,0,1.56,1.32A3.2,3.2,0,0,1,104.93,29.81ZM79.29,27.75a1.74,1.74,0,0,0-1.33.61,2.51,2.51,0,0,0-.49,2,1.87,1.87,0,0,0,1.91,1.76,3.68,3.68,0,0,0,.71-.08c4.19-.81,4.58-3.58,4.17-5.75l-.36-1.94-1.63,1.11a4.73,4.73,0,0,0-1.4,1.72c-.36.65-.47.76-.59.76a1.3,1.3,0,0,1-.39-.08A2,2,0,0,0,79.29,27.75ZM183,11a2.34,2.34,0,0,0-2,1.17,2.76,2.76,0,0,0-.07,2.69,2.18,2.18,0,0,0,2,1.24,2.81,2.81,0,0,0,2-.94,4.87,4.87,0,0,1,1.78-1A15,15,0,0,0,189,13.11l2.41-1.47-2.68-.87a6.28,6.28,0,0,0-2-.32,9,9,0,0,0-2.32.36,5.55,5.55,0,0,1-1.3.24ZM98.7,2.6A3.36,3.36,0,0,0,96.13,4a2.32,2.32,0,0,0-.46,2,7.6,7.6,0,0,1,.17,2c0,1.78,0,4.22,2.76,5.51l1.14.54.56-1.13c1.11-2.21,1-4.48.84-6.68l0-.59c0-.73-.17-2.94-2.28-3ZM129,300a6.29,6.29,0,0,0-.11-3.55,7,7,0,0,0-1.45-2.74,1.5,1.5,0,0,0,.35-.36,3.68,3.68,0,0,0,1.24,1,1.52,1.52,0,0,0,0,1.12c.12.32.22.65.33,1a8.2,8.2,0,0,0,1.85,3.55Zm-22,0c.09-.11.21-.24.38-.42a2,2,0,0,0,.75-1.73,1.72,1.72,0,0,0-1-1.3,2.78,2.78,0,0,0-1.16-.24,1.75,1.75,0,0,0-1,.29,2.06,2.06,0,0,0-.23-.28,3.11,3.11,0,0,0,2.16-1.28c.36-.53.69-.8,1-.8a3.62,3.62,0,0,1,1.65.89c1.36,1.1,2.05,2,2.11,2.88a2.83,2.83,0,0,1-.86,2Zm-13.28,0q.26-.25.52-.54a2.5,2.5,0,0,1,.7-.59A6.06,6.06,0,0,0,97,300Zm184.87-3.71h-.29a11.58,11.58,0,0,1-2.12-.35,4.26,4.26,0,0,0,2.21-1.76c.5-.65.78-1,1.18-1.06a9.26,9.26,0,0,0-.31,2c0,.9-.18,1.11-.19,1.13h0A1.54,1.54,0,0,1,278.6,296.29ZM94.48,295a1.73,1.73,0,0,1-.4,0A35.18,35.18,0,0,0,86,293.75c-.68,0-1.36,0-2,.1L82.5,294l.23-.32-.76-.78a53,53,0,0,0-10.49-8.31l.24,0a1.5,1.5,0,0,0,1.22-.56,2.23,2.23,0,0,0,1.31.4,5.17,5.17,0,0,0,1.4-.26l.22-.06.08,0a1.8,1.8,0,0,0,.7,2.55l.08.06a1.87,1.87,0,0,0,1.22.46,2.47,2.47,0,0,0,1.47-.57,2.44,2.44,0,0,1,1.41-.53c.82,0,1.37.59,1.48,1.57l.32,2.92,1.94-2.21c2-2.33,3.37-6.1-1.89-10.83a3.54,3.54,0,0,0-2.36-1.07h-.24a2.12,2.12,0,0,0-.43-1.94,5.06,5.06,0,0,1-.37-4.72,5.46,5.46,0,0,0,.33-4.39l.43.39v-2.93c0-.62,0-1.18-.09-1.62a6.67,6.67,0,0,1,0-1c2.24-3.27.34-5.62-.93-7.17a10.48,10.48,0,0,1-1.07-1.48h0a1.25,1.25,0,0,1,.36-.05,4.62,4.62,0,0,1,1.35.33,10.44,10.44,0,0,0,1.21.36,16.49,16.49,0,0,0,2.27.7c2.41.62,3.68,1.05,4,3.45.14,1.14,1.2,1.87,2.7,1.87a4.34,4.34,0,0,0,1.46-.25l.87.3a15.22,15.22,0,0,0,5,1,7.82,7.82,0,0,0,5.71-2.35,1.52,1.52,0,0,0,.22.36,2,2,0,0,0,1.52.68,1.84,1.84,0,0,0,1.16-.4,2.54,2.54,0,0,0,.71,2.23l.9,1.05,1.32-1.31.21.32a2.61,2.61,0,0,0,2,1.39c.61,0,1.45-.31,2-1.78a2.3,2.3,0,0,1,.1-.24l.44.2a4.3,4.3,0,0,0,1.52.51H115a.49.49,0,0,1,0,.14,15.38,15.38,0,0,0-1.49,3,7.86,7.86,0,0,1-2.3,3.62c-.42.31-.57.35-.61.35l-.1,0-.25-.13a3.57,3.57,0,0,0-1.61-.5,2.05,2.05,0,0,0-2,1.62,2.2,2.2,0,0,0,.13,1.89,2.42,2.42,0,0,0,1.87,1,3.33,3.33,0,0,1,.4.08,1.38,1.38,0,0,1,.76.47.89.89,0,0,1-.24.16,2.88,2.88,0,0,0-1.74,3.45l0,.2a4.11,4.11,0,0,0,2.44,3.45,18.87,18.87,0,0,0-.61,2,9.72,9.72,0,0,1-.83,2.32c-.52.65-4.44,1.72-8.06,1.72a5.17,5.17,0,0,1-2.5-.35,9.92,9.92,0,0,0-5.54-1.57c-.66,0-1.34-.09-2-.2l-2.91-.45,1.65,2.45c.18.27.31.48.41.66l-.37,0-.76-.06-.32,0a4.47,4.47,0,0,0-.53,0A2.31,2.31,0,0,0,85.68,287a2.53,2.53,0,0,0,.13,2.27,1.85,1.85,0,0,0,1.6.75,4.84,4.84,0,0,0,.56,0H88c.25.07.52.18.81.29a6.5,6.5,0,0,0,2.42.58,4.31,4.31,0,0,0,1.69-.35.74.74,0,0,1,.28-.07c.1,0,.13,0,.14,0a.85.85,0,0,1,.13.57A3.71,3.71,0,0,0,94.84,294a5.78,5.78,0,0,1,.58.58A1.26,1.26,0,0,1,94.48,295Zm99.3-.29a3.22,3.22,0,0,1-.6-.82l.22-.07.58-.2c.61-.24,1.21-.51,1.81-.8l-1.31,1A2.45,2.45,0,0,0,193.79,294.68Zm-71-.28a4.22,4.22,0,0,1-1.23-.37l-.08,0c.43-.73.78-.85,1.08-.85a2.62,2.62,0,0,1,1,.28l-.05.11C123.13,294.4,122.86,294.4,122.77,294.4Zm-72-14.28c-1.23-.68-1.5-1.15-1.19-2.29l0-.12a1.85,1.85,0,0,0,.79,1c.68.43.75.67.75.67A2.12,2.12,0,0,1,50.79,280.11ZM131,275a1.69,1.69,0,0,1-.85-.39,5,5,0,0,0-2.76-1.07,3.34,3.34,0,0,0,.54-1.82,2.82,2.82,0,0,0-.05-.53,6.71,6.71,0,0,0,2,.36,3.8,3.8,0,0,0,.55,0,1.62,1.62,0,0,0-.71,1.11c-.17,1.12.87,1.85,1.21,2.1.13.09.19.19.16.25Zm-8-2.62a7.15,7.15,0,0,0-2.48-1.67c-.75-.37-1.69-.82-1.79-1.24,0-.13-.06-.66.88-1.89a2.31,2.31,0,0,0,.18-2.33c-.86-1.6-.37-3.14.19-4.93a14.57,14.57,0,0,0,.75-3.3,1,1,0,0,1,.17-.44c.32.12.67.23,1,.33a6.86,6.86,0,0,1,1.64.65,19.3,19.3,0,0,0-.16,3,13.26,13.26,0,0,1-.23,3.11c-.86,3.55-.61,5,1.07,6a4.52,4.52,0,0,0-1,2l0,.18A1,1,0,0,1,123,272.37Zm8.76-1.5a2.51,2.51,0,0,0,.47-.63,2.06,2.06,0,0,0,0,.36A4.46,4.46,0,0,0,131.74,270.87Zm102.74-.12a15.41,15.41,0,0,1-1.3-1.46,13.29,13.29,0,0,0-2.12-2.22c-3.75-2.91-5.82-5.92-6.4-9.35a1.81,1.81,0,0,0,.74.16,2,2,0,0,0,1.58-.83c.9-1.07.64-2.56-.64-3.71a60.35,60.35,0,0,1-6.08-6.7,54.18,54.18,0,0,0-7.52-8l-.73-.59-.79.51a1.89,1.89,0,0,0-.47.43l.07-1.15c.1-1.76.47-2.17,1.2-2.37a1.76,1.76,0,0,1,.48-.07c.68,0,1.27.52,2.16,1.38s1.71,1.55,2.56,2.27c3.08,2.63,6,5.11,6.32,9.43a2.07,2.07,0,0,0,2.17,2.07,5.59,5.59,0,0,0,1.1-.14l.3,1.24a9.86,9.86,0,0,0,3.43,5l.59.55a5,5,0,0,1,.48,2.6,11.75,11.75,0,0,0,.26,2.58l.45,1.84,1.54-1.09a5.88,5.88,0,0,1,.64-.4l.32,1.5a7.68,7.68,0,0,1-.23,4A4,4,0,0,0,234.49,270.75Zm1-8.39h.19a1.79,1.79,0,0,1,1.07.41Zm-103.8-1.47a8,8,0,0,0-.81-.4,5.55,5.55,0,0,1-.74-.36l-.18-.12a6.61,6.61,0,0,1-1.19-.89c1-3.56-1.73-4.44-3.19-4.91l-.42-.14-1-.34a16.52,16.52,0,0,1-3.4-1.36c-.43-.26-.93-.5-1.41-.73-.74-.36-2.29-1.11-2.23-1.54a24.05,24.05,0,0,0,.17-2.84,20.74,20.74,0,0,1,.15-2.61,3.24,3.24,0,0,1,.93-1.62,3,3,0,0,0,.77.1,3.27,3.27,0,0,0,2.15-.94,3.32,3.32,0,0,1,.42-.32l.13-.08a5,5,0,0,1,1.61-.72h0s.21.15.4.83c.39,1.42,1.27,1.63,1.76,1.63a2.29,2.29,0,0,0,1-.27l.2-.09a1.87,1.87,0,0,0,1.4-1.49,2.13,2.13,0,0,0-.91-2,7.9,7.9,0,0,1-1.85-2.39c-1-1.62-2.06-3.45-4.55-4.16-.34-.09-.93-.62-1.49-1.79-.92-1.92-1.14-4.24-.77-5.13l.53-1.25a58.73,58.73,0,0,0,3.34-9.32c.1-.44.17-.51,1.12-.65a5.22,5.22,0,0,0,1.39-.36,27.17,27.17,0,0,1,1,4,10.55,10.55,0,0,0,4.5,6.43l.33.21h.39a1.8,1.8,0,0,0,1.69-1c.48.38,1,.72,1.47,1.06,2,1.36,3.19,2.29,3.15,4.31a1.84,1.84,0,0,0,0,.35,2.18,2.18,0,0,0-1.24,0l-1.49.48.75,1.37a7.61,7.61,0,0,0,4.57,3.91,3.35,3.35,0,0,0-.08.82V237a3.41,3.41,0,0,0,1.39,3.25l-1.58,1.38c-.58.51-1.13,1-1.65,1.54-1.83,1.77-3.42,3.3-5.78,3.51l-1.71.16.63,1.6a3,3,0,0,0,3.11,1.88h.39c.33,1.82,1.36,2.1,2,2.1a2.94,2.94,0,0,0,1.47-.5h0a4.31,4.31,0,0,1,.76,1.41,1.33,1.33,0,0,1-.57.27,6.3,6.3,0,0,0-3.73,2.79,5,5,0,0,1-1.81,1.73A2.32,2.32,0,0,0,131.67,260.9Zm-5.08-32.5a2.52,2.52,0,0,0-1.07.26c-2.5,1.17-1.91,3.33-1.6,4.49a6,6,0,0,1,.21,1l2.52.27a.4.4,0,0,1-.12.19,3.07,3.07,0,0,1,.53-.2A2.8,2.8,0,0,0,129,233a2.65,2.65,0,0,0-.14-2.23l-.05-.19C128.62,230,128.19,228.4,126.59,228.4ZM97.5,255.54a2.45,2.45,0,0,1-.79-.18,8.7,8.7,0,0,0-1.93-.54,2.18,2.18,0,0,0,.11-.59,2.52,2.52,0,0,0-.9-2c-.07-.07-.15-.2-.25-.34-.53-.74-1.41-2-2.84-2h-.06a3.43,3.43,0,0,0,.4-.51c.94-1.47.53-3.26.25-4.45a3.11,3.11,0,0,1-.11-1.06,1.93,1.93,0,0,1,.39,0,10.4,10.4,0,0,1,1,.08,3,3,0,0,1,.37.2,3.41,3.41,0,0,0,1.75.57,2.72,2.72,0,0,0,1-.19l1.13-.44c-.19.34-.36.68-.53,1a13.07,13.07,0,0,1-1.3,2.19l-2,2.48,3.14-.39c2.27-.29,3.31-1.82,4.15-3.06a7.57,7.57,0,0,1,1.09-1.38,9.59,9.59,0,0,0,2.69-3.12,4.49,4.49,0,0,0,1,.1c.3,0,.6,0,.9,0s.43,0,.63,0a.9.9,0,0,1,.32,0,2.61,2.61,0,0,0,2,1.21,2.33,2.33,0,0,0,1.86-1.15l.43.34a2,2,0,0,0,0,.65,2.46,2.46,0,0,0,1.15,1.75,1.81,1.81,0,0,1-1.43.74,2.93,2.93,0,0,1-.83-.14,2.2,2.2,0,0,0-.63-.09,2.49,2.49,0,0,0-1.58,4.37,2.12,2.12,0,0,0,1.5.7,2.47,2.47,0,0,0,1.86-1.13.79.79,0,0,1,.68-.27,1.87,1.87,0,0,1,.83.21c0,.15-.08.38-.12.55a4.8,4.8,0,0,0-.21,1.68c-.13.14-.25.28-.36.41-.41.5-.54.61-.83.63h0a5.43,5.43,0,0,1-.68-.06,8.2,8.2,0,0,0-1.07-.09,2.48,2.48,0,0,0-2,.78l-.17.22a3.25,3.25,0,0,0-.66-.51,4.87,4.87,0,0,0-2.41-.55c-2.13,0-5,1-6.27,2.92C97.86,255.54,97.64,255.54,97.5,255.54Zm15-14.86a2,2,0,0,0-.36-1.66,9.74,9.74,0,0,0,.74-.85l.41-.49,1.92-2.2-3.11.06a5.86,5.86,0,0,1-.66,0l.24-.43c.42-.74,1.17-2.06.34-3.09a2.93,2.93,0,0,0,2-2.3,13.94,13.94,0,0,0,1.92,3.25,6.27,6.27,0,0,1,.95,2.78,10.05,10.05,0,0,0,1,3.32,2.65,2.65,0,0,1-1.25.91,2.78,2.78,0,0,0-2-1.08,2.17,2.17,0,0,0-1.86,1.39c0,.08-.11.2-.15.26l-.25.2Zm97.78-.14a2,2,0,0,1-1.67-1.69,3.09,3.09,0,0,0,.68.2l1.27.23A2.86,2.86,0,0,0,210.31,240.55Zm-106.89-2.32.31.16-.13.08Zm-20.85-.07a3,3,0,0,0-.15-.79l1.09.4A4.06,4.06,0,0,0,82.57,238.16ZM90.83,237q-.07-.22-.14-.42a1.87,1.87,0,0,0,.69-.27A4.06,4.06,0,0,0,90.83,237Zm21.37-11.69a2.62,2.62,0,0,1,.25-.83l.23-.3a2.75,2.75,0,0,0,.85-2.47,1.79,1.79,0,0,0-.62-.9,6.85,6.85,0,0,1,.91-.18l.3,0a3.06,3.06,0,0,0,.88,2l0,.1a8.19,8.19,0,0,0-1.06,2l-.08,0-.56-.12Zm-21.56-3.91.09,0-.1,0Zm-90-4.76a4.05,4.05,0,0,0,.14.42,5.41,5.41,0,0,1-.14,3.73Zm74,.79a4.2,4.2,0,0,1-.59,0L84.29,215a3.36,3.36,0,0,0-.52,1.41,1.54,1.54,0,0,1-.23.74h-.13a3.14,3.14,0,0,1-1-.25,5.87,5.87,0,0,0-2.09-.36,13.43,13.43,0,0,0-3.11.48A11.65,11.65,0,0,1,74.57,217.46Zm42.27-.23a4.48,4.48,0,0,1,1.49-2A6,6,0,0,1,116.83,217.24Zm-59.12-4A3,3,0,0,1,55.24,212a.41.41,0,0,1-.07-.11,3.84,3.84,0,0,1,.46-.63,5.92,5.92,0,0,0,.54-.74c.09-.14.38-.62.61-.62a6.54,6.54,0,0,1,2.31,1.41l1.3,1-.21.13A4.84,4.84,0,0,1,57.71,213.19Zm19.36-3.14a2.12,2.12,0,0,0,.32-1,2,2,0,0,0-.73-1.69c-.39-.34-.43-.51-.43-.51a5.24,5.24,0,0,1,.63-.69,6.11,6.11,0,0,0,.86-1,1.63,1.63,0,0,1,1.56-.84c-.48.69-.91,1.31-1.36,1.92a2.13,2.13,0,0,0,.1,2.77l0,.05a2.21,2.21,0,0,0,1.08.76l-1.61.12Zm-33.94-1a8,8,0,0,0,.09-2.22c0-.13,0-.24,0-.35a1.8,1.8,0,0,0,1.65,1.58,1.79,1.79,0,0,1,.32.07,4.89,4.89,0,0,1-.11.51v0a2.81,2.81,0,0,0-.64-.08A1.89,1.89,0,0,0,43.13,209.1Zm30.23-4.82.13,0-.11.09Zm225.19-9.91c-1.58-1.81-1.21-4.31-.88-6.53,0-.27.08-.54.11-.79s.08-.65.12-1a7.64,7.64,0,0,0,.65,1.06Zm-.74-14.25a24,24,0,0,0-2.58-7.76,7.93,7.93,0,0,1-.63-3.41h0a7.11,7.11,0,0,0,3.58,1.69l.38.09v9.63ZM72.92,172.67a1.75,1.75,0,0,1-1.23-.92l0-.08a7.1,7.1,0,0,1,1-.48l.48-.18a6,6,0,0,0,1.68-.81,3,3,0,0,0,.05.83c0,.18.06.37.09.57a3.88,3.88,0,0,0-1.09.64,3.64,3.64,0,0,1-.35.25A1.12,1.12,0,0,1,72.92,172.67Zm216-12.62-.46-.06a3,3,0,0,1-.51-.09l.08.06-1.87-.29q.78-1.41,1.58-2.82C288.14,157.94,288.53,159,288.92,160.05ZM275.09,159a6.83,6.83,0,0,1-1.18-.12c-1.69-.3-2.66-1.11-4.06-2.7-2.61-3-4.28-6.38-6-10-.79-1.61-1.59-3.26-2.49-4.87l1,1.55c1.51,2.37,2.94,4.61,4.42,6.87,1.34,2,8.32,6.09,11.12,6.09h.07l-.09.11a4.23,4.23,0,0,0-1,1.6C276.54,158.75,276,159,275.09,159Zm8.89-5a3.06,3.06,0,0,0-.36-1.47l1.11.08Zm14.56-19.59a4,4,0,0,0-2.09-.53,11.16,11.16,0,0,0-1.27.09,8.75,8.75,0,0,1-.9.07,1,1,0,0,1-.48-.09,6.88,6.88,0,0,0-1.61-1,5.65,5.65,0,0,0,.9-.38l.12-.06a11.34,11.34,0,0,0,5.34-5.5Zm-45.23-16.15a5.63,5.63,0,0,0,.09-1.12l0-1.94.37.63c.24.4.48.81.73,1.22A9.87,9.87,0,0,0,253.31,118.28Zm-121.69-3.16a4,4,0,0,0-.44-.81,4.62,4.62,0,0,0,1.9-.48,11.45,11.45,0,0,0-1.13,1.06A.91.91,0,0,1,131.62,115.12Zm166.61-14h-.1c-1.12-.2-1.28-.73-1.45-2.7a11.23,11.23,0,0,0-.31-2.11h.44a3.79,3.79,0,0,0,1.57-.32,8.7,8.7,0,0,0,.16,2.78V101A.4.4,0,0,1,298.23,101.16ZM191,62a4.25,4.25,0,0,1-3.73-1.6,2.9,2.9,0,0,0-2.41-1.54,3.45,3.45,0,0,0-1.68.53,3.08,3.08,0,0,1-.37.18,3.52,3.52,0,0,0-1.64.6,8.87,8.87,0,0,0,.18-2.11c0-1,.89-1.64,2.27-2.49l.22-.14a.39.39,0,0,1,.17,0,.33.33,0,0,1,.31.16,4.25,4.25,0,0,0,3.89,2.46,10.41,10.41,0,0,0,2.23-.32,8.48,8.48,0,0,1,1.69-.26,1.68,1.68,0,0,1,.8.17l.28.14h.36a1.57,1.57,0,0,0,1.11-.49,1.14,1.14,0,0,1,.25.59,9.31,9.31,0,0,0-1.26,3.81l-1.33.2A9.16,9.16,0,0,1,191,62Zm-9.11-10.34a1.16,1.16,0,0,1-.45-.13.32.32,0,0,1-.16-.12,1.51,1.51,0,0,1,1.08-.94l.11,0,.25.1c-.07.1-.13.21-.19.33S182.11,51.69,181.88,51.69Zm.82-4.9a3.37,3.37,0,0,1-2.39-1.2,2.49,2.49,0,0,0-.6-.45,2,2,0,0,0,.81-2,3.61,3.61,0,0,1,2.26,1.39,7.24,7.24,0,0,0,1.67,1.72A3.58,3.58,0,0,1,182.71,46.79ZM40.28,45.47a7.7,7.7,0,0,0-1.17-.52l-.33-.13a7.73,7.73,0,0,1,3.9-2.44l.55-.22.2-.08.08.12.06.1-.3.15A3.92,3.92,0,0,0,42,43.57c-.15.18-.31.38-.52.6ZM.61,33.83a8.94,8.94,0,0,1,1.22-.24,6.88,6.88,0,0,0,3.08-1,3,3,0,0,0,2.69,1.6A4.25,4.25,0,0,0,8.75,34a2.45,2.45,0,0,0-.07.39A2.07,2.07,0,0,0,9.21,36a2.46,2.46,0,0,0,1.82.8c.14,0,.26,0,.35.45l-.12,0a3.79,3.79,0,0,0-1.1.52,8.29,8.29,0,0,1-2.54,1.09,8.71,8.71,0,0,0-4.86,2.92l-1.54,2-.11-.17-.49.93Zm220.53,9.79.48-.53,0,.13Zm-39.08-4.33-.23-.18a3.76,3.76,0,0,0-2.49-.87,8.77,8.77,0,0,0-1.78.24,6.63,6.63,0,0,1-1.25.18,1.17,1.17,0,0,1-.79-.25L175,38a2,2,0,0,0,.73.14,2,2,0,0,0,1-.29,1.43,1.43,0,0,1,.78-.21,5.67,5.67,0,0,1,1.35.25,7.76,7.76,0,0,0,2,.34,4.06,4.06,0,0,0,1.08-.14l.19,0a.92.92,0,0,1,.63.42l0,0A3.6,3.6,0,0,0,182.06,39.29ZM21.51,37.38h-.1a3.7,3.7,0,0,1-.36-.83,4.59,4.59,0,0,0-1.31-2.16L20,34l.29-.49.09,0a2.19,2.19,0,0,0,1.37-1.15,2,2,0,0,0-.08-1.63,2.64,2.64,0,0,0-.84-1c.31-.09.62-.19.92-.3l.79-.27a5.7,5.7,0,0,0,3.12,4.18l0,.12a24.54,24.54,0,0,1-1.06,2.92c-.3.65-.93.79-2.28.94l-.56.07ZM196.3,35.11a5.68,5.68,0,0,1-.86-2.41A7.09,7.09,0,0,0,194.5,30c-1.25-1.84-1.73-3.2-1.43-4a3,3,0,0,1,1.83-1.48,4.24,4.24,0,0,0,1.1,2.79l.41.45c.77.86,1.73,1.93,3.06,1.93a2.48,2.48,0,0,0,1.23-.33l-.76,1.1c-.28.42-.56.84-.83,1.26a15,15,0,0,1-2.75,3.48Zm18.78-.26a2.93,2.93,0,0,1-.22-1.61h0a2.37,2.37,0,0,1,.59-.06,12.55,12.55,0,0,1,1.93.23l.3,0h.16a18.58,18.58,0,0,1-1.66.88ZM203,34l-.2,0a4.51,4.51,0,0,1,.11-2,1.72,1.72,0,0,0-.88-1.69l-.17-.13-1-1,.06,0a2.79,2.79,0,0,0,.9-1,3.24,3.24,0,0,0,2.35.78h.18l.74,0,.87,0a5,5,0,0,0,1.86-.3l0,.11c.61,3.58.61,3.58-3,4.75A6.45,6.45,0,0,1,203,34Zm-57.37-1.55.24-.32.22.18A2.15,2.15,0,0,0,145.64,32.46ZM14,32.23H13c.24-.09.51-.17.78-.25a6.31,6.31,0,0,0,2.5-1.22,3.36,3.36,0,0,0-.2.84c-.06.58-.07.63-1.08.63ZM36.14,32,36,32a2,2,0,0,0,.18-.56,3,3,0,0,0,.47.14,2.72,2.72,0,0,0-.38.35ZM17.23,29.48l.06,0-.1.08Zm230-.4c-2.11-.84-3.33-1.77-3.72-2.84a4.91,4.91,0,0,1,.51-3.6,16.81,16.81,0,0,0,1.51,2.22C246.73,26.45,247.46,27.51,247.21,29.09Zm-89.76-2.2a4.21,4.21,0,0,1-1.87-.76,10.49,10.49,0,0,0-1.68-.84.51.51,0,0,1,.28-.09,12.1,12.1,0,0,1,2.57.67,15.65,15.65,0,0,0,2,.49l-.3.19A1.82,1.82,0,0,1,157.45,26.89ZM22,26.47a3.17,3.17,0,0,0-1.89-.64,2.58,2.58,0,0,1-.33,0l-.29-.14a7.08,7.08,0,0,1-1-.52,8,8,0,0,1,.92-1.88l.1-.17.22.05c.53.12.82.19,1,.42A4.29,4.29,0,0,1,22,26C22,26.13,22,26.3,22,26.47Zm123.47-9a3.13,3.13,0,0,0-.44-.12,9.68,9.68,0,0,0-1-.13,8,8,0,0,1-.84-.11,4,4,0,0,1,.35-.84,2,2,0,0,0,.17-1.36c.22.16.43.34.66.53a11.77,11.77,0,0,0,1.29,1c0,.17-.07.37-.11.58S145.55,17.28,145.52,17.46Zm-11.06-1.9c-1.25,0-3.62-1.8-3.77-2.51,0-1.22,0-2.25-.71-3a2.44,2.44,0,0,0-1.78-.65,8.67,8.67,0,0,0-1.14.09l-.36,0a1.74,1.74,0,0,1-1.47-.65.91.91,0,0,1,0-.93c.3-.62.57-1.26.84-1.89a15.66,15.66,0,0,1,2.83-4.9h15.24a20,20,0,0,0-1.38,4.6c-.5,2.38-.94,4.43-2.77,6.15l-3,2.77a7.81,7.81,0,0,0-2.53.85ZM209,5.88a3,3,0,0,1-2-3,3.06,3.06,0,0,0-.29-1.1h.18a1.47,1.47,0,0,1,1,.38c.4.35.47.71.54,1.64l0,.4A3.54,3.54,0,0,0,209,5.88Z"/><path class="cls-2" d="M44.33,62,45,62c2.8.2,3.73.74,4,1s.8,1.2.8,3.86V78.42H32.25V67c0-2.66.51-3.56.82-3.86s1.4-.86,4-1.05l.66,0V59.48H19V62l.66,0c2.63.19,3.64.67,4,1.05s.81,1.2.81,3.86V94c0,3.39-.5,4.28-.72,4.51s-1.18.82-4.14,1.14l-.63.07v2.5H37.75V99.71l-.65-.05c-2.63-.21-3.64-.69-4-1.06s-.81-1.16-.81-3.86V82.58H49.82V94c0,3.4-.5,4.3-.71,4.53s-1.16.82-4.14,1.11l-.64.06v2.5H63.07V99.72l-.64-.06c-2.65-.23-3.66-.71-4-1.07s-.8-1.15-.8-3.84V67c0-2.66.51-3.56.81-3.86s1.39-.86,4-1l.66,0V59.48H44.33Z"/><path class="cls-2" d="M101.76,90.26l-.19.42c-1.53,3.38-3.24,5.53-5.09,6.38s-5,1.32-9.08,1.32c-4.77,0-6.36-.17-6.85-.31-.16,0-.66-.19-.66-1.52V81.79h8.93c3.18,0,4.22.6,4.55,1s1.07,1.62,1.62,4.46l.11.57h2.75V71.93H95.1L95,72.5c-.52,2.82-1.16,4-1.59,4.45s-1.37,1-4.58,1H79.89V64.67a2.59,2.59,0,0,1,.17-1.23s.21-.17,1.14-.17h8.51c4.34,0,6,.58,6.65,1.07s1.5,1.72,2.12,4.92l.11.57h2.89l-.25-10.35H66.64V62l.66,0c2.79.2,3.73.75,4,1.06s.8,1.21.8,3.85V94.75c0,2.88-.54,3.65-.77,3.85-.39.33-1.42.78-4.09,1.07l-.63.07v2.5h35l3.22-12Z"/><path class="cls-2" d="M144.36,98.9A8,8,0,0,1,142.19,97L130.07,82a16.59,16.59,0,0,0,7.4-3.23,9.45,9.45,0,0,0,3.29-7.7c0-4.93-2.45-8.36-7.29-10.19a26.3,26.3,0,0,0-9.25-1.42h-18V62l.65.05c2.72.22,3.63.77,3.93,1.08s.79,1.21.79,3.83V94c0,3.16-.45,4.17-.72,4.5s-1.13.88-4,1.15l-.64.06v2.51H125V99.72l-.64-.06c-2.73-.24-3.79-.71-4.19-1.06s-.81-1.13-.81-3.86V83.09l1.72-.1,15.61,19.23h11.1v-2.5l-.64-.06A7.15,7.15,0,0,1,144.36,98.9Zm-25-34.17c0-1,.24-1.17.27-1.19s.49-.27,2.87-.27a15,15,0,0,1,6,1c2.72,1.21,4,3.42,4,6.75s-1.48,5.77-4.53,7a29.23,29.23,0,0,1-8.67,1.32Z"/><path class="cls-2" d="M169.52,58.59a20.5,20.5,0,0,0-14.67,5.72c-4.31,4.15-6.5,9.71-6.5,16.55,0,6.51,2,11.92,6.09,16.08a20.27,20.27,0,0,0,15.09,6.16A20.64,20.64,0,0,0,184,97.55c4.44-4.13,6.69-9.74,6.69-16.69s-2.18-12.4-6.47-16.52A20.48,20.48,0,0,0,169.52,58.59Zm8.93,36.51a11.25,11.25,0,0,1-8.92,4.34,11.14,11.14,0,0,1-9-4.46c-2.47-3-3.72-7.75-3.72-14.12s1.26-11.15,3.73-14.15a11.15,11.15,0,0,1,9-4.46,11.35,11.35,0,0,1,8.88,4.3c2.52,2.88,3.8,7.7,3.8,14.3S180.94,92.18,178.45,95.1Z"/><path class="cls-2" d="M231.83,98.64a11.22,11.22,0,0,1-2.94-3.31L217.35,78.62,226,67.71a20.71,20.71,0,0,1,5.15-5,8.21,8.21,0,0,1,3.56-.71l.69,0V59.48H219.24V62h.7a10.34,10.34,0,0,1,2.76.27,1.1,1.1,0,0,1,.86,1.16,2.13,2.13,0,0,1-.26.91,15.72,15.72,0,0,1-2,2.85L214.87,75,209,66.48a11.09,11.09,0,0,1-.8-1.32,4,4,0,0,1-.53-1.72,1,1,0,0,1,.76-1.06,14.43,14.43,0,0,1,3.34-.33l.68,0V59.48H192.2V62l.68,0a6.88,6.88,0,0,1,4.4,1.55c1.16,1,3.24,3.73,6.17,8l6.55,9.6-9.32,11.53a51.09,51.09,0,0,1-5.07,5.75,6.58,6.58,0,0,1-3.44,1.17l-.63.07v2.5h15.83V99.7l-.66,0a12.75,12.75,0,0,1-3-.45c-1-.34-1.1-.83-1.1-1.21a4,4,0,0,1,.88-1.82c.41-.61,1.15-1.59,2.21-2.93l6.74-8.46c3.85,5.66,6.25,9.25,7.12,10.68,1.12,1.83,1.29,2.6,1.29,2.89a.81.81,0,0,1-.59.88,11.41,11.41,0,0,1-3.45.41l-.69,0v2.55h19.78V99.76l-.6-.09A9.92,9.92,0,0,1,231.83,98.64Z"/><path class="cls-3" d="M280.39,99.67a9.92,9.92,0,0,1-3.45-1A11.22,11.22,0,0,1,274,95.33L262.47,78.62l8.7-10.91a20.71,20.71,0,0,1,5.15-5,8.21,8.21,0,0,1,3.56-.71l.69,0V59.48H264.36V62h.7a10.34,10.34,0,0,1,2.76.27,1.1,1.1,0,0,1,.86,1.16,2.13,2.13,0,0,1-.26.91,15.72,15.72,0,0,1-2,2.85L260,75l-5.91-8.57a11.09,11.09,0,0,1-.8-1.32,4,4,0,0,1-.53-1.72,1,1,0,0,1,.76-1.06,14.43,14.43,0,0,1,3.34-.33l.68,0V59.48H237.32V62l.68,0a6.88,6.88,0,0,1,4.4,1.55c1.16,1,3.24,3.73,6.17,8l6.55,9.6L245.8,92.74a51.09,51.09,0,0,1-5.07,5.75,6.58,6.58,0,0,1-3.44,1.17l-.63.07v2.5h15.83V99.7l-.66,0a12.75,12.75,0,0,1-3-.45c-1-.34-1.1-.83-1.1-1.21a4,4,0,0,1,.88-1.82c.41-.61,1.15-1.59,2.21-2.93l6.74-8.46c3.85,5.66,6.25,9.25,7.12,10.68,1.12,1.83,1.29,2.6,1.29,2.89a.81.81,0,0,1-.59.88,11.41,11.41,0,0,1-3.45.41l-.69,0v2.55H281V99.76Z"/><path class="cls-3" d="M57.7,161.62c-1.41,2.89-2.85,4.7-4.28,5.37s-4.46,1-8.84,1c-1.14,0-1.92,0-2.34,0s-.78,0-1.14-.09-.7-.18-.76-.28a2,2,0,0,1-.19-1V142.34c0-1.42.25-2.4.7-2.76s1.23-.65,3.36-.77l.64,0v-2.25H29.21v2.24l.62,0c2.23.16,3,.59,3.2.83s.62.95.62,3.05V165.2c0,2.29-.41,2.89-.59,3s-1,.6-3.26.84l-.6.06v2.22H57.62l2.85-10.12H57.88Z"/><path class="cls-3" d="M80.34,135.81a16.7,16.7,0,0,0-12,4.66c-3.51,3.38-5.3,7.91-5.3,13.48a18.11,18.11,0,0,0,5,13.1,16.52,16.52,0,0,0,12.29,5,16.82,16.82,0,0,0,11.8-4.53c3.62-3.36,5.45-7.93,5.45-13.59s-1.77-10.1-5.27-13.46A16.68,16.68,0,0,0,80.34,135.81Zm7.16,29.6a9,9,0,0,1-7.15,3.48,8.92,8.92,0,0,1-7.2-3.57c-2-2.41-3-6.24-3-11.37s1-9,3-11.4A8.93,8.93,0,0,1,80.35,139a9.1,9.1,0,0,1,7.11,3.45c2,2.32,3.05,6.19,3.05,11.52S89.5,163.07,87.49,165.42Z"/><path class="cls-3" d="M122.18,154.34l.63,0c2.23.14,3,.52,3.22.73s.6.78.6,3.15v8.06a1.07,1.07,0,0,1-.24.79,6.11,6.11,0,0,1-2,.87,12.61,12.61,0,0,1-2.23.51,15.26,15.26,0,0,1-2.06.17,11.23,11.23,0,0,1-8.6-3.72c-2.32-2.48-3.5-6-3.5-10.46,0-5.44,1.18-9.37,3.5-11.69a11.15,11.15,0,0,1,8.09-3.5,9.49,9.49,0,0,1,7.29,2.95,18.83,18.83,0,0,1,3.09,5.29l.17.41h2.3l-.45-12h-2.21l-.17.42a2.67,2.67,0,0,1-.61,1,1.62,1.62,0,0,1-1.08.24,23.54,23.54,0,0,1-3.08-.79,21.62,21.62,0,0,0-6-.84,17.28,17.28,0,0,0-13.55,5.79,18.35,18.35,0,0,0-4.64,12.55,16.65,16.65,0,0,0,5.85,13.31,19.39,19.39,0,0,0,12.94,4.48,26.81,26.81,0,0,0,8.61-1.52c4-1.36,4.82-2.19,4.82-3v-10c0-1.4.27-2.34.79-2.74a4.13,4.13,0,0,1,2.12-.47l.63,0V152.1H122.18Z"/><path class="cls-3" d="M137.5,138.78l.64,0c2.48.12,3.32.54,3.59.78s.69.93.69,3.09V165.2c0,2.34-.45,2.94-.65,3.09s-1.13.6-3.64.79l-.62,0v2.24h16.32v-2.24l-.62,0c-2.51-.18-3.36-.57-3.64-.79s-.65-.75-.65-3.09V142.69c0-2.17.43-2.87.69-3.09s1.11-.67,3.59-.78l.64,0v-2.25H137.5Z"/><path class="cls-3" d="M172.5,151.6l-4.45-2.74a14.63,14.63,0,0,1-3.52-2.8,4.27,4.27,0,0,1-1-2.9,3.42,3.42,0,0,1,1.29-2.87,5,5,0,0,1,3.2-1.08,8.74,8.74,0,0,1,5,1.8c1.68,1.18,2.92,3.34,3.7,6.41l.13.51h2.48l-1.25-12.12H175.9l-.12.51a2.58,2.58,0,0,1-.43,1,1.08,1.08,0,0,1-.75.19,19.06,19.06,0,0,1-2.58-.81,13.67,13.67,0,0,0-4.39-.89,9.8,9.8,0,0,0-7.22,2.74,9.33,9.33,0,0,0-2.74,6.85,8.44,8.44,0,0,0,2.33,5.74,16.29,16.29,0,0,0,3.25,2.61l4.32,2.69a31.21,31.21,0,0,1,4.76,3.38,5.28,5.28,0,0,1,1.59,3.83,4.68,4.68,0,0,1-1.53,3.77,5.47,5.47,0,0,1-3.74,1.37,8.72,8.72,0,0,1-7-3.3,17.67,17.67,0,0,1-2.89-5.24l-.16-.44h-2.4l1.7,12.12h2.27l.09-.57a2.73,2.73,0,0,1,.33-.93c.08-.14.28-.2.59-.2a19.62,19.62,0,0,1,2.73.85A15.64,15.64,0,0,0,169,172a11.82,11.82,0,0,0,8.12-2.84,9.21,9.21,0,0,0,3.23-7.15,8.84,8.84,0,0,0-1.83-5.56A23.55,23.55,0,0,0,172.5,151.6Z"/><path class="cls-3" d="M184,136.53l-.34,9.94h2.49l.1-.55c.59-3.17,1.44-4.41,2-4.89s2-1.06,5.3-1.06h2.17V164.6c0,2.7-.42,3.43-.6,3.61s-.9.65-3.57.86l-.62,0v2.23h16.1v-2.24l-.62,0c-2.51-.18-3.36-.57-3.64-.79s-.65-.75-.65-3.09V140h2.14c3.42,0,4.78.57,5.32,1.05s1.35,1.74,2.05,4.92l.12.53h2.44l-.31-9.94Z"/><path class="cls-3" d="M216.1,138.78l.64,0c2.48.12,3.32.54,3.59.78s.69.93.69,3.09V165.2c0,2.34-.46,2.94-.65,3.09s-1.13.6-3.64.79l-.62,0v2.24h16.32v-2.24l-.62,0c-2.51-.18-3.36-.57-3.64-.79s-.65-.75-.65-3.09V142.69c0-2.16.43-2.87.69-3.09s1.11-.67,3.59-.78l.64,0v-2.25H216.1Z"/><path class="cls-3" d="M270.21,169.08a8,8,0,0,1-2.76-.81,9,9,0,0,1-2.35-2.65l-9.3-13.47,7-8.78a16.67,16.67,0,0,1,4.14-4,6.55,6.55,0,0,1,2.84-.56l.66,0v-2.27H257.11v2.27h.66A8.34,8.34,0,0,1,260,139a.79.79,0,0,1,.62.85,1.63,1.63,0,0,1-.2.7,12.62,12.62,0,0,1-1.61,2.29l-5.11,6.22L249,142.24a8.84,8.84,0,0,1-.64-1.06,3.15,3.15,0,0,1-.42-1.34.68.68,0,0,1,.55-.77,11.57,11.57,0,0,1,2.68-.26l.65,0v-2.26H235.21v2.26l.65,0a5.47,5.47,0,0,1,3.5,1.23,43.32,43.32,0,0,1,5,6.48l5.26,7.71-7.5,9.28a41.34,41.34,0,0,1-4.09,4.64,5.24,5.24,0,0,1-2.73.93l-.6.06v2.21h13v-2.24l-.63,0a9.76,9.76,0,0,1-2.41-.36c-.72-.25-.82-.59-.82-.89,0-.06,0-.44.69-1.42.33-.49.93-1.29,1.78-2.37l5.37-6.74c3.07,4.52,5,7.38,5.69,8.53a5.51,5.51,0,0,1,1,2.29.56.56,0,0,1-.41.62,9.15,9.15,0,0,1-2.76.33l-.66,0v2.27h16.22v-2.19Z"/><path class="cls-3" d="M113.91,215l.53,0c2,.09,2.61.43,2.83.61s.53.72.53,2.43v17.82c0,1.84-.35,2.31-.5,2.43a6,6,0,0,1-2.87.62l-.52,0v1.82h13v-1.82l-.52,0a6,6,0,0,1-2.87-.62c-.15-.12-.5-.59-.5-2.43V218c0-1.7.33-2.25.53-2.43s.87-.52,2.83-.61l.53,0v-1.83h-13Z"/><path class="cls-3" d="M148.86,214.94l.51,0c1.75.15,2.32.49,2.51.67.37.38.82,1.36.82,3.88v11.73l-14.64-18.14H130.4V215l.54,0a5.16,5.16,0,0,1,1.66.24,3.82,3.82,0,0,1,1.28,1.12l.42.49v17.44c0,2.58-.36,3.42-.58,3.69s-.95.73-2.81.92l-.5.05v1.8h10.52v-1.8l-.5-.05c-1.72-.19-2.28-.53-2.46-.71-.37-.38-.8-1.36-.8-3.89v-14l16.9,20.94h1.51V219.57c0-2.56.39-3.39.63-3.66s1-.75,2.69-.93l.5-.05v-1.8H148.86Z"/><path class="cls-3" d="M184.61,234.22l-.39.37a16.72,16.72,0,0,1-3.2,2.46,10.92,10.92,0,0,1-5.46,1.41,8.44,8.44,0,0,1-6.69-3,12,12,0,0,1-2.67-8.19c0-3.74.86-6.7,2.55-8.8a7.83,7.83,0,0,1,6.44-3.12,7.45,7.45,0,0,1,6.19,2.88,12.48,12.48,0,0,1,2,4.14l.12.4h1.92L185,212.66H183.2l-.12.4a1.09,1.09,0,0,1-.46.66,1.46,1.46,0,0,1-.77.23,22.89,22.89,0,0,1-2.43-.63,17.05,17.05,0,0,0-4.61-.67A13.82,13.82,0,0,0,164.28,217a14.47,14.47,0,0,0-3.85,10.2,14.15,14.15,0,0,0,3.65,9.9,14.78,14.78,0,0,0,18.26,2.07,14,14,0,0,0,3.44-3.08l.31-.39Z"/><path class="cls-2" d="M298.71,1.29V298.71H1.29V1.29H298.71M300,0H0V300H300V0Z"/></svg>